<svg width="182" height="54" viewBox="0 0 182 54" fill="none" xmlns="http://www.w3.org/2000/svg">
<path d="M18.3427 38.6923L18.2747 38.6489C17.7899 38.3403 17.1468 38.4836 16.8384 38.9684C16.5301 39.4533 16.6731 40.0966 17.1579 40.4051L17.223 40.4466C17.3964 40.5573 17.5902 40.6103 17.7819 40.6103C18.1252 40.6103 18.4612 40.4404 18.6598 40.1295C18.9689 39.645 18.827 39.0016 18.3427 38.6923Z" fill="#FEF5E5"/>
<path d="M52.9624 28.401C52.7674 28.2058 52.5026 28.0961 52.2267 28.0961C51.9951 28.0961 49.5284 28.1065 45.7522 28.4972C45.5569 24.4745 44.1359 20.7015 41.6111 17.5329C38.9671 14.2147 35.253 11.8405 31.1528 10.8477C30.5945 10.7128 30.032 11.0557 29.8968 11.6143C29.7617 12.1729 30.1048 12.7353 30.6632 12.8705C38.1017 14.6718 43.3654 21.1371 43.6804 28.7358C38.7001 29.3678 32.1042 30.6236 25.4307 33.1201C25.3814 33.1386 25.3351 33.1615 25.2905 33.1862C22.9002 32.0242 20.3664 31.0396 17.7051 30.2412C14.7595 29.3576 11.9984 28.8008 9.60092 28.4521C10.0363 20.9906 15.2954 14.6403 22.6034 12.8705C23.1618 12.7352 23.505 12.1728 23.3697 11.6143C23.2345 11.0556 22.6718 10.7123 22.1137 10.8477C13.9598 12.8225 8.07925 19.879 7.53326 28.1895C3.68645 27.7735 1.16603 27.9042 0.988225 27.9142C0.437449 27.9454 0.00683594 28.4013 0.00683594 28.9532V52.2402C0.00683594 52.8149 0.472614 53.2808 1.04721 53.2808H52.2218C52.7962 53.2808 53.2671 52.815 53.2672 52.2404V29.1369C53.2671 28.861 53.1576 28.5962 52.9624 28.401ZM36.0926 40.5593C43.5191 37.4229 49.366 37.0037 51.1846 36.9535L51.1836 41.772C49.2477 41.8949 44.9024 42.4343 40.0057 44.761C38.7965 43.2693 37.4911 41.8676 36.0926 40.5593ZM51.1861 30.203L51.185 34.8682C49.1456 34.9093 42.6601 35.3526 34.373 39.0364C33.625 38.4101 32.8539 37.8078 32.0589 37.2309C30.6986 36.2436 29.2687 35.3301 27.7762 34.4897C38.0279 30.9605 48.0085 30.319 51.1861 30.203ZM2.08738 41.1592C3.09042 41.5831 4.56464 42.2822 6.21385 43.3133C8.65533 44.8397 11.9357 47.3946 14.4477 51.1997H2.08738V41.1592ZM32.6158 51.1997H31.1599C28.4306 47.1364 25.0685 43.586 21.1556 40.6436C20.6962 40.2981 20.044 40.3907 19.6988 40.85C19.3535 41.3095 19.4459 41.9619 19.9053 42.3072C23.2544 44.8258 26.1804 47.8116 28.626 51.1997H16.8983C14.0988 46.4204 10.138 43.3039 7.25839 41.512C5.00878 40.1122 3.08595 39.2941 2.08738 38.9143V34.3483C4.16555 34.7376 8.80551 35.8399 14.0305 38.5912C14.1851 38.6726 14.3508 38.7111 14.5143 38.7111C14.8882 38.7111 15.2495 38.5089 15.4358 38.155C15.7035 37.6465 15.5083 37.0171 14.9998 36.7494C9.1606 33.6749 4.10406 32.5737 2.08738 32.2299V29.9726C4.35979 29.9711 10.311 30.1856 17.1757 32.2553C28.221 35.5854 36.5409 41.9541 41.9324 51.1997H32.6158ZM44.3226 51.1997C43.4099 49.5364 42.4031 47.9527 41.3062 46.4508C45.5911 44.4968 49.4195 43.9922 51.1829 43.8624L51.1813 51.1995L44.3226 51.1997Z" fill="#FEF5E5"/>
<path d="M26.6341 12.392H26.6645C27.2391 12.392 27.7049 11.9262 27.7049 11.3514C27.7049 10.7767 27.2391 10.3107 26.6645 10.3107H26.6341C26.0595 10.3107 25.5938 10.7767 25.5938 11.3514C25.5938 11.9262 26.0595 12.392 26.6341 12.392Z" fill="#FEF5E5"/>
<path d="M26.6341 8.86324C27.2087 8.86324 27.6745 8.39732 27.6745 7.82257V1.04098C27.6745 0.466233 27.2087 0.000335693 26.6341 0.000335693C26.0595 0.000335693 25.5938 0.466233 25.5938 1.04098V7.82257C25.5938 8.39732 26.0595 8.86324 26.6341 8.86324Z" fill="#FEF5E5"/>
<path d="M41.929 15.2001C42.1952 15.2001 42.4615 15.0984 42.6646 14.8953L47.2635 10.2952C47.6698 9.88882 47.6698 9.22985 47.2635 8.82354C46.8572 8.41714 46.1985 8.41714 45.7922 8.82354L41.1933 13.4236C40.7871 13.83 40.7871 14.4889 41.1933 14.8953C41.3965 15.0985 41.6628 15.2001 41.929 15.2001Z" fill="#FEF5E5"/>
<path d="M17.3954 9.86767C17.5614 10.2685 17.9487 10.5103 18.3571 10.5103C18.4897 10.5103 18.6246 10.4849 18.7548 10.4308C19.2857 10.2108 19.5378 9.60221 19.3179 9.07112L16.829 3.06108C16.6091 2.53004 16.0005 2.27789 15.4697 2.49788C14.9387 2.71788 14.6868 3.32655 14.9066 3.85759L17.3954 9.86767Z" fill="#FEF5E5"/>
<path d="M34.5127 10.4309C34.6428 10.4849 34.7777 10.5104 34.9104 10.5104C35.3186 10.5104 35.706 10.2684 35.872 9.86768L38.361 3.85764C38.5808 3.3266 38.3287 2.71792 37.7979 2.49793C37.2673 2.27794 36.6586 2.53019 36.4386 3.06113L33.9496 9.07121C33.7297 9.60213 33.9818 10.2109 34.5127 10.4309Z" fill="#FEF5E5"/>
<path d="M0.642505 19.8161L6.25182 22.1402C6.38197 22.1942 6.51681 22.2196 6.64956 22.2196C7.05781 22.2196 7.44514 21.9777 7.61118 21.577C7.83102 21.046 7.57893 20.4372 7.04813 20.2174L1.43881 17.8933C0.908014 17.6734 0.299491 17.9254 0.0795548 18.4565C-0.140486 18.9874 0.111598 19.5961 0.642505 19.8161Z" fill="#FEF5E5"/>
<path d="M45.6566 21.577C45.8225 21.9777 46.2098 22.2197 46.6182 22.2197C46.7509 22.2197 46.8857 22.1942 47.0159 22.1402L52.6252 19.8162C53.1561 19.5962 53.4082 18.9875 53.1882 18.4565C52.9685 17.9254 52.3597 17.6733 51.829 17.8933L46.2197 20.2174C45.6889 20.4371 45.4368 21.0459 45.6566 21.577Z" fill="#FEF5E5"/>
<path d="M10.6028 14.8954C10.806 15.0985 11.0721 15.2001 11.3384 15.2001C11.6046 15.2001 11.871 15.0984 12.0741 14.8954C12.4803 14.489 12.4805 13.83 12.0741 13.4236L7.47526 8.82362C7.06899 8.41718 6.41023 8.41728 6.00396 8.82362C5.59769 9.23002 5.59759 9.88899 6.00396 10.2953L10.6028 14.8954Z" fill="#FEF5E5"/>
<path d="M72.8394 45.4609H67.6157L66.6535 48.125H65.0039L69.334 36.2141H71.1383L75.4512 48.125H73.8017L72.8394 45.4609ZM72.3926 44.1891L70.2276 38.1391L68.0625 44.1891H72.3926ZM81.2218 38.5516C82.0351 38.5516 82.7454 38.7292 83.3525 39.0844C83.9711 39.4396 84.4293 39.8864 84.7272 40.425V38.7063H86.3084V48.3313C86.3084 49.1906 86.1245 49.9526 85.7582 50.6172C85.3916 51.2933 84.8646 51.8203 84.1773 52.1985C83.5014 52.5766 82.711 52.7656 81.806 52.7656C80.5689 52.7656 79.5379 52.4734 78.7131 51.8891C77.8883 51.3047 77.4014 50.5083 77.2525 49.5H78.799C78.9708 50.073 79.3259 50.5313 79.8644 50.875C80.4027 51.2302 81.05 51.4078 81.806 51.4078C82.6652 51.4078 83.364 51.1386 83.9024 50.6C84.4522 50.0614 84.7272 49.3052 84.7272 48.3313V46.3547C84.4179 46.9047 83.9596 47.363 83.3525 47.7297C82.7454 48.0964 82.0351 48.2797 81.2218 48.2797C80.3855 48.2797 79.6238 48.0734 78.9365 47.6609C78.2606 47.2484 77.7279 46.6698 77.3384 45.925C76.9489 45.1802 76.7542 44.3323 76.7542 43.3813C76.7542 42.4188 76.9489 41.5766 77.3384 40.8547C77.7279 40.1214 78.2606 39.5542 78.9365 39.1531C79.6238 38.7521 80.3855 38.5516 81.2218 38.5516ZM84.7272 43.3984C84.7272 42.688 84.584 42.0693 84.2976 41.5422C84.0112 41.0151 83.6217 40.6141 83.1292 40.3391C82.648 40.0526 82.1153 39.9094 81.5311 39.9094C80.9469 39.9094 80.4142 40.0469 79.9331 40.3219C79.452 40.5969 79.0682 40.998 78.7818 41.525C78.4954 42.0521 78.3523 42.6708 78.3523 43.3813C78.3523 44.1031 78.4954 44.7333 78.7818 45.2719C79.0682 45.7989 79.452 46.2058 79.9331 46.4922C80.4142 46.7672 80.9469 46.9047 81.5311 46.9047C82.1153 46.9047 82.648 46.7672 83.1292 46.4922C83.6217 46.2058 84.0112 45.7989 84.2976 45.2719C84.584 44.7333 84.7272 44.1089 84.7272 43.3984ZM90.5139 40.2359C90.7889 39.6974 91.1789 39.2792 91.6824 38.9813C92.1979 38.6833 92.8225 38.5344 93.5553 38.5344V40.15H93.1429C91.3903 40.15 90.5139 41.1011 90.5139 43.0031V48.125H88.9503V38.7063H90.5139V40.2359ZM99.4672 48.2797C98.5848 48.2797 97.7832 48.0792 97.0616 47.6781C96.351 47.2771 95.79 46.7099 95.3776 45.9766C94.9764 45.2318 94.7762 44.3724 94.7762 43.3984C94.7762 42.4359 94.9824 41.588 95.3948 40.8547C95.8183 40.1099 96.3914 39.5427 97.1131 39.1531C97.8348 38.7521 98.6424 38.5516 99.5359 38.5516C100.429 38.5516 101.237 38.7521 101.959 39.1531C102.68 39.5427 103.247 40.1042 103.66 40.8375C104.083 41.5708 104.296 42.4245 104.296 43.3984C104.296 44.3724 104.078 45.2318 103.643 45.9766C103.219 46.7099 102.64 47.2771 101.907 47.6781C101.174 48.0792 100.361 48.2797 99.4672 48.2797ZM99.4672 46.9047C100.028 46.9047 100.556 46.773 101.048 46.5094C101.54 46.2458 101.936 45.8505 102.234 45.3235C102.543 44.7964 102.698 44.1547 102.698 43.3984C102.698 42.6422 102.549 42.0005 102.251 41.4734C101.953 40.9464 101.564 40.5568 101.082 40.3047C100.601 40.0411 100.08 39.9094 99.5187 39.9094C98.9457 39.9094 98.419 40.0411 97.9379 40.3047C97.4679 40.5568 97.0899 40.9464 96.8038 41.4734C96.5177 42.0005 96.3742 42.6422 96.3742 43.3984C96.3742 44.1661 96.5117 44.8136 96.7866 45.3406C97.0727 45.8677 97.4507 46.263 97.9207 46.5266C98.3907 46.7786 98.9062 46.9047 99.4672 46.9047ZM107.915 40.4422C108.225 39.9036 108.682 39.4568 109.29 39.1016C109.908 38.7349 110.624 38.5516 111.438 38.5516C112.274 38.5516 113.03 38.7521 113.706 39.1531C114.393 39.5542 114.932 40.1214 115.321 40.8547C115.71 41.5766 115.905 42.4188 115.905 43.3813C115.905 44.3323 115.71 45.1802 115.321 45.925C114.932 46.6698 114.393 47.2484 113.706 47.6609C113.03 48.0734 112.274 48.2797 111.438 48.2797C110.636 48.2797 109.926 48.1021 109.307 47.7469C108.7 47.3802 108.236 46.9276 107.915 46.3891V52.5938H106.352V38.7063H107.915V40.4422ZM114.307 43.3813C114.307 42.6708 114.164 42.0521 113.878 41.525C113.592 40.998 113.202 40.5969 112.709 40.3219C112.228 40.0469 111.696 39.9094 111.111 39.9094C110.538 39.9094 110.006 40.0526 109.513 40.3391C109.032 40.6141 108.643 41.0208 108.345 41.5594C108.059 42.0864 107.915 42.6995 107.915 43.3984C107.915 44.1089 108.059 44.7333 108.345 45.2719C108.643 45.7989 109.032 46.2058 109.513 46.4922C110.006 46.7672 110.538 46.9047 111.111 46.9047C111.696 46.9047 112.228 46.7672 112.709 46.4922C113.202 46.2058 113.592 45.7989 113.878 45.2719C114.164 44.7333 114.307 44.1031 114.307 43.3813ZM126.555 43.0547C126.555 43.3526 126.538 43.6677 126.504 44H118.978C119.034 44.9281 119.35 45.6558 119.923 46.1828C120.507 46.6985 121.212 46.9563 122.036 46.9563C122.712 46.9563 123.274 46.8016 123.72 46.4922C124.178 46.1714 124.499 45.7474 124.683 45.2203H126.366C126.114 46.1255 125.61 46.8646 124.854 47.4375C124.098 47.9989 123.158 48.2797 122.036 48.2797C121.143 48.2797 120.34 48.0792 119.631 47.6781C118.931 47.2771 118.381 46.7099 117.981 45.9766C117.58 45.2318 117.38 44.3724 117.38 43.3984C117.38 42.4245 117.574 41.5708 117.964 40.8375C118.353 40.1042 118.897 39.5427 119.596 39.1531C120.306 38.7521 121.12 38.5516 122.036 38.5516C122.93 38.5516 123.72 38.7464 124.408 39.1359C125.095 39.5255 125.622 40.0641 125.988 40.7516C126.366 41.4276 126.555 42.1953 126.555 43.0547ZM124.94 42.7281C124.94 42.1323 124.808 41.6224 124.545 41.1984C124.281 40.763 123.92 40.4364 123.463 40.2188C123.016 39.9896 122.517 39.875 121.968 39.875C121.177 39.875 120.501 40.1271 119.94 40.6313C119.39 41.1355 119.075 41.8344 118.995 42.7281H124.94ZM128.035 43.3984C128.035 42.4245 128.23 41.5766 128.619 40.8547C129.008 40.1214 129.547 39.5542 130.234 39.1531C130.933 38.7521 131.729 38.5516 132.623 38.5516C133.78 38.5516 134.73 38.8323 135.475 39.3938C136.231 39.9552 136.73 40.7344 136.97 41.7313H135.286C135.126 41.1583 134.811 40.7058 134.341 40.3734C133.883 40.0411 133.31 39.875 132.623 39.875C131.729 39.875 131.008 40.1844 130.458 40.8031C129.908 41.4105 129.633 42.2755 129.633 43.3984C129.633 44.5328 129.908 45.4094 130.458 46.0281C131.008 46.6469 131.729 46.9563 132.623 46.9563C133.31 46.9563 133.883 46.7958 134.341 46.475C134.799 46.1542 135.114 45.6958 135.286 45.1H136.97C136.718 46.0625 136.214 46.8359 135.458 47.4203C134.702 47.9933 133.757 48.2797 132.623 48.2797C131.729 48.2797 130.933 48.0792 130.234 47.6781C129.547 47.2771 129.008 46.7099 128.619 45.9766C128.23 45.2433 128.035 44.3839 128.035 43.3984ZM147.408 38.7063V48.125H145.844V46.7328C145.546 47.2141 145.128 47.5922 144.59 47.8672C144.062 48.1308 143.478 48.2625 142.837 48.2625C142.104 48.2625 141.445 48.1136 140.861 47.8156C140.277 47.5063 139.813 47.048 139.469 46.4406C139.137 45.8333 138.971 45.0943 138.971 44.2234V38.7063H140.518V44.0172C140.518 44.9453 140.752 45.6614 141.222 46.1656C141.691 46.6583 142.333 46.9047 143.147 46.9047C143.983 46.9047 144.642 46.6469 145.123 46.1313C145.604 45.6156 145.844 44.8651 145.844 43.8797V38.7063H147.408ZM149.463 43.3813C149.463 42.4188 149.658 41.5766 150.047 40.8547C150.437 40.1214 150.97 39.5542 151.645 39.1531C152.333 38.7521 153.095 38.5516 153.931 38.5516C154.756 38.5516 155.472 38.7292 156.079 39.0844C156.686 39.4396 157.139 39.8864 157.436 40.425V38.7063H159.017V48.125H157.436V46.3719C157.127 46.9219 156.663 47.3802 156.044 47.7469C155.438 48.1021 154.727 48.2797 153.914 48.2797C153.078 48.2797 152.322 48.0734 151.645 47.6609C150.97 47.2484 150.437 46.6698 150.047 45.925C149.658 45.1802 149.463 44.3323 149.463 43.3813ZM157.436 43.3984C157.436 42.688 157.293 42.0693 157.007 41.5422C156.72 41.0151 156.331 40.6141 155.838 40.3391C155.357 40.0526 154.824 39.9094 154.24 39.9094C153.656 39.9094 153.123 40.0469 152.642 40.3219C152.161 40.5969 151.778 40.998 151.491 41.525C151.205 42.0521 151.061 42.6708 151.061 43.3813C151.061 44.1031 151.205 44.7333 151.491 45.2719C151.778 45.7989 152.161 46.2058 152.642 46.4922C153.123 46.7672 153.656 46.9047 154.24 46.9047C154.824 46.9047 155.357 46.7672 155.838 46.4922C156.331 46.2058 156.72 45.7989 157.007 45.2719C157.293 44.7333 157.436 44.1089 157.436 43.3984ZM156.216 36.0422L152.556 38.0016V36.8328L156.216 34.6844V36.0422ZM163.223 40.2359C163.498 39.6974 163.887 39.2792 164.392 38.9813C164.907 38.6833 165.532 38.5344 166.265 38.5344V40.15H165.852C164.1 40.15 163.223 41.1011 163.223 43.0031V48.125H161.66V38.7063H163.223V40.2359ZM168.877 37.1766C168.579 37.1766 168.328 37.0735 168.121 36.8672C167.915 36.661 167.812 36.4089 167.812 36.1109C167.812 35.813 167.915 35.5609 168.121 35.3547C168.328 35.1484 168.579 35.0453 168.877 35.0453C169.164 35.0453 169.404 35.1484 169.599 35.3547C169.805 35.5609 169.908 35.813 169.908 36.1109C169.908 36.4089 169.805 36.661 169.599 36.8672C169.404 37.0735 169.164 37.1766 168.877 37.1766ZM169.634 38.7063V48.125H168.07V38.7063H169.634ZM171.714 43.3813C171.714 42.4188 171.909 41.5766 172.299 40.8547C172.688 40.1214 173.22 39.5542 173.897 39.1531C174.584 38.7521 175.346 38.5516 176.182 38.5516C177.007 38.5516 177.722 38.7292 178.33 39.0844C178.937 39.4396 179.389 39.8864 179.687 40.425V38.7063H181.268V48.125H179.687V46.3719C179.378 46.9219 178.914 47.3802 178.296 47.7469C177.688 48.1021 176.978 48.2797 176.165 48.2797C175.329 48.2797 174.573 48.0734 173.897 47.6609C173.22 47.2484 172.688 46.6698 172.299 45.925C171.909 45.1802 171.714 44.3323 171.714 43.3813ZM179.687 43.3984C179.687 42.688 179.544 42.0693 179.258 41.5422C178.972 41.0151 178.582 40.6141 178.089 40.3391C177.608 40.0526 177.076 39.9094 176.491 39.9094C175.907 39.9094 175.374 40.0469 174.893 40.3219C174.412 40.5969 174.028 40.998 173.742 41.525C173.456 42.0521 173.312 42.6708 173.312 43.3813C173.312 44.1031 173.456 44.7333 173.742 45.2719C174.028 45.7989 174.412 46.2058 174.893 46.4922C175.374 46.7672 175.907 46.9047 176.491 46.9047C177.076 46.9047 177.608 46.7672 178.089 46.4922C178.582 46.2058 178.972 45.7989 179.258 45.2719C179.544 44.7333 179.687 44.1089 179.687 43.3984Z" fill="#FEF5E5"/>
<path d="M77.9082 19.0438V30.9375H76.3446V22.0688L72.3924 30.9375H71.2927L67.3234 22.0516V30.9375H65.7598V19.0438H67.4437L71.8426 28.875L76.2415 19.0438H77.9082ZM79.9759 26.1938C79.9759 25.2313 80.1705 24.3891 80.5601 23.6672C80.9495 22.9339 81.4822 22.3667 82.1581 21.9656C82.8454 21.5646 83.6072 21.3641 84.4435 21.3641C85.2683 21.3641 85.9843 21.5417 86.5917 21.8969C87.1983 22.2521 87.651 22.6989 87.9492 23.2375V21.5188H89.53V30.9375H87.9492V29.1844C87.6399 29.7344 87.1759 30.1927 86.5573 30.5594C85.9499 30.9146 85.2396 31.0922 84.4263 31.0922C83.59 31.0922 82.8339 30.8859 82.1581 30.4734C81.4822 30.0609 80.9495 29.4823 80.5601 28.7375C80.1705 27.9927 79.9759 27.1448 79.9759 26.1938ZM87.9492 26.2109C87.9492 25.5005 87.8057 24.8817 87.5196 24.3547C87.2326 23.8276 86.8434 23.4266 86.3511 23.1516C85.8697 22.8651 85.337 22.7219 84.7528 22.7219C84.1685 22.7219 83.6359 22.8594 83.1547 23.1344C82.6736 23.4094 82.2898 23.8105 82.0035 24.3375C81.717 24.8646 81.5739 25.4833 81.5739 26.1938C81.5739 26.9156 81.717 27.5458 82.0035 28.0844C82.2898 28.6114 82.6736 29.0183 83.1547 29.3047C83.6359 29.5797 84.1685 29.7172 84.7528 29.7172C85.337 29.7172 85.8697 29.5797 86.3511 29.3047C86.8434 29.0183 87.2326 28.6114 87.5196 28.0844C87.8057 27.5458 87.9492 26.9214 87.9492 26.2109ZM93.7356 23.0484C94.0105 22.5099 94.4006 22.0917 94.904 21.7938C95.4195 21.4958 96.0441 21.3469 96.777 21.3469V22.9625H96.3646C94.6119 22.9625 93.7356 23.9136 93.7356 25.8156V30.9375H92.1719V21.5188H93.7356V23.0484ZM99.3897 19.9891C99.0915 19.9891 98.8398 19.8859 98.6336 19.6797C98.4274 19.4734 98.3243 19.2214 98.3243 18.9234C98.3243 18.6255 98.4274 18.3734 98.6336 18.1672C98.8398 17.9609 99.0915 17.8578 99.3897 17.8578C99.6758 17.8578 99.9163 17.9609 100.111 18.1672C100.318 18.3734 100.421 18.6255 100.421 18.9234C100.421 19.2214 100.318 19.4734 100.111 19.6797C99.9163 19.8859 99.6758 19.9891 99.3897 19.9891ZM100.146 21.5188V30.9375H98.5821V21.5188H100.146ZM107.399 21.3469C108.544 21.3469 109.472 21.6964 110.182 22.3953C110.893 23.0828 111.248 24.0797 111.248 25.3859V30.9375H109.701V25.6094C109.701 24.6698 109.467 23.9536 108.997 23.4609C108.527 22.9567 107.886 22.7047 107.072 22.7047C106.247 22.7047 105.588 22.9625 105.096 23.4781C104.615 23.9938 104.374 24.7442 104.374 25.7297V30.9375H102.811V21.5188H104.374V22.8594C104.684 22.3781 105.102 22.0058 105.629 21.7422C106.168 21.4786 106.757 21.3469 107.399 21.3469ZM118.476 21.3469C119.186 21.3469 119.827 21.5016 120.4 21.8109C120.973 22.1089 121.42 22.5614 121.741 23.1688C122.073 23.7761 122.239 24.5151 122.239 25.3859V30.9375H120.692V25.6094C120.692 24.6698 120.458 23.9536 119.988 23.4609C119.518 22.9567 118.877 22.7047 118.063 22.7047C117.239 22.7047 116.58 22.9625 116.087 23.4781C115.606 23.9938 115.366 24.7442 115.366 25.7297V30.9375H113.802V18.2188H115.366V22.8594C115.675 22.3781 116.099 22.0058 116.637 21.7422C117.187 21.4786 117.8 21.3469 118.476 21.3469ZM128.9 31.0922C128.018 31.0922 127.216 30.8917 126.494 30.4906C125.784 30.0896 125.223 29.5224 124.81 28.7891C124.409 28.0442 124.209 27.1849 124.209 26.2109C124.209 25.2484 124.415 24.4005 124.828 23.6672C125.251 22.9224 125.824 22.3552 126.546 21.9656C127.268 21.5646 128.075 21.3641 128.969 21.3641C129.862 21.3641 130.67 21.5646 131.391 21.9656C132.113 22.3552 132.68 22.9167 133.093 23.65C133.516 24.3833 133.728 25.237 133.728 26.2109C133.728 27.1849 133.511 28.0442 133.075 28.7891C132.652 29.5224 132.073 30.0896 131.34 30.4906C130.607 30.8917 129.793 31.0922 128.9 31.0922ZM128.9 29.7172C129.461 29.7172 129.988 29.5855 130.481 29.3219C130.973 29.0583 131.368 28.663 131.666 28.1359C131.976 27.6089 132.13 26.9672 132.13 26.2109C132.13 25.4547 131.982 24.813 131.684 24.2859C131.385 23.7589 130.996 23.3692 130.515 23.1172C130.034 22.8536 129.513 22.7219 128.951 22.7219C128.378 22.7219 127.852 22.8536 127.371 23.1172C126.901 23.3692 126.523 23.7589 126.237 24.2859C125.95 24.813 125.807 25.4547 125.807 26.2109C125.807 26.9786 125.944 27.6261 126.219 28.1531C126.505 28.6802 126.883 29.0755 127.353 29.3391C127.823 29.5911 128.339 29.7172 128.9 29.7172Z" fill="#FEF5E5"/>
</svg>
