<svg width="213" height="64" viewBox="0 0 213 64" fill="none" xmlns="http://www.w3.org/2000/svg">
<path d="M31.0347 55.3561C42.6733 55.3561 52.1083 45.9211 52.1083 34.2824C52.1083 22.6437 42.6733 13.2087 31.0347 13.2087C19.396 13.2087 9.961 22.6437 9.961 34.2824C9.961 45.9211 19.396 55.3561 31.0347 55.3561Z" fill="#F5C181"/>
<path d="M30.024 39.674C45.4503 33.9045 60.7886 33.9045 60.7886 33.9045L60.7826 60.7886C60.7826 60.7886 50.4748 60.7886 37.9627 60.7886L30.024 39.674Z" fill="#21857F"/>
<path d="M1.21893 33.691C1.21893 33.691 35.4457 31.7482 50.8667 60.7887C40.9381 60.7887 1.21893 60.7887 1.21893 60.7887V33.691Z" fill="#33ADA6"/>
<path d="M21.3501 45.0238L21.2709 44.9733C20.7066 44.6142 19.9581 44.7809 19.5992 45.345C19.2403 45.9093 19.4067 46.6578 19.971 47.0168L20.0468 47.0651C20.2486 47.1939 20.4742 47.2556 20.6973 47.2556C21.0969 47.2556 21.488 47.0579 21.7191 46.6961C22.0789 46.1324 21.9138 45.3837 21.3501 45.0238Z" fill="#00564E"/>
<path d="M61.6449 33.0485C61.4179 32.8213 61.1098 32.6937 60.7886 32.6937C60.5191 32.6937 57.648 32.7058 53.2527 33.1604C53.0254 28.4794 51.3714 24.089 48.4328 20.4019C45.3553 16.5408 41.0323 13.7781 36.26 12.6228C35.6101 12.4658 34.9554 12.8648 34.7981 13.5148C34.6408 14.1648 35.0402 14.8193 35.6901 14.9766C44.3481 17.0726 50.4747 24.5959 50.8413 33.438C45.0445 34.1734 37.3673 35.6348 29.5998 38.5398C29.5424 38.5613 29.4886 38.5879 29.4366 38.6167C26.6545 37.2645 23.7053 36.1188 20.6077 35.1898C17.1792 34.1616 13.9655 33.5137 11.175 33.1079C11.6818 24.4255 17.803 17.036 26.309 14.9766C26.959 14.8192 27.3584 14.1647 27.201 13.5148C27.0436 12.8647 26.3886 12.4652 25.7391 12.6228C16.2484 14.9207 9.40388 23.1319 8.76838 32.8024C4.29095 32.3183 1.35734 32.4704 1.15039 32.482C0.509323 32.5183 0.00811768 33.0488 0.00811768 33.691V60.7886C0.00811768 61.4574 0.550253 61.9995 1.21905 61.9995H60.7829C61.4515 61.9995 61.9996 61.4575 61.9997 60.7888V33.9048C61.9996 33.5837 61.8721 33.2756 61.6449 33.0485ZM42.0096 47.1963C50.6535 43.5467 57.459 43.0589 59.5757 43.0004L59.5745 48.6074C57.3212 48.7504 52.2636 49.3781 46.5642 52.0855C45.1568 50.3498 43.6374 48.7187 42.0096 47.1963ZM59.5774 35.1453L59.5762 40.5739C57.2024 40.6218 49.6537 41.1376 40.0081 45.4242C39.1375 44.6954 38.2399 43.9946 37.3146 43.3233C35.7313 42.1744 34.067 41.1114 32.3298 40.1335C44.2621 36.0268 55.8789 35.2803 59.5774 35.1453ZM2.42974 47.8944C3.59721 48.3876 5.3131 49.2011 7.23267 50.4009C10.0744 52.1771 13.8925 55.1501 16.8163 59.5778H2.42974V47.8944ZM37.9628 59.5778H36.2683C33.0915 54.8497 29.1782 50.7183 24.6239 47.2944C24.0892 46.8924 23.3301 47.0001 22.9283 47.5346C22.5264 48.0693 22.6339 48.8284 23.1686 49.2302C27.0668 52.1609 30.4724 55.6353 33.319 59.5778H19.6687C16.4102 54.0165 11.8001 50.39 8.44845 48.3049C5.83005 46.676 3.592 45.7241 2.42974 45.2821V39.969C4.84859 40.422 10.2492 41.7046 16.3308 44.9061C16.5107 45.0009 16.7036 45.0457 16.8939 45.0457C17.329 45.0457 17.7496 44.8104 17.9664 44.3986C18.278 43.8068 18.0508 43.0745 17.459 42.763C10.6625 39.1853 4.77702 37.904 2.42974 37.5039V34.8772C5.07467 34.8755 12.0015 35.1251 19.9916 37.5335C32.8475 41.4085 42.5314 48.8193 48.8067 59.5778H37.9628ZM51.5888 59.5778C50.5264 57.6424 49.3546 55.7995 48.0779 54.0519C53.0652 51.7781 57.5212 51.1909 59.5737 51.0399L59.5718 59.5776L51.5888 59.5778Z" fill="#00564E"/>
<path d="M30.9999 14.4198H31.0353C31.7041 14.4198 32.2462 13.8777 32.2462 13.2089C32.2462 12.5401 31.7041 11.9979 31.0353 11.9979H30.9999C30.3311 11.9979 29.789 12.5401 29.789 13.2089C29.789 13.8777 30.3311 14.4198 30.9999 14.4198Z" fill="#00564E"/>
<path d="M30.9999 10.3136C31.6687 10.3136 32.2109 9.77143 32.2109 9.10263V1.21133C32.2109 0.542532 31.6687 0.000396729 30.9999 0.000396729C30.3311 0.000396729 29.789 0.542532 29.789 1.21133V9.10263C29.789 9.77143 30.3311 10.3136 30.9999 10.3136Z" fill="#00564E"/>
<path d="M48.8023 17.6874C49.1121 17.6874 49.4221 17.5691 49.6585 17.3327L55.0113 11.9799C55.4842 11.507 55.4842 10.7402 55.0113 10.2674C54.5384 9.7945 53.7717 9.7945 53.2988 10.2674L47.946 15.6202C47.4732 16.0931 47.4732 16.8598 47.946 17.3327C48.1825 17.5692 48.4924 17.6874 48.8023 17.6874Z" fill="#00564E"/>
<path d="M20.2466 11.4824C20.4398 11.9488 20.8906 12.2302 21.3659 12.2302C21.5203 12.2302 21.6773 12.2006 21.8288 12.1377C22.4468 11.8817 22.7402 11.1735 22.4842 10.5555L19.5873 3.562C19.3314 2.94406 18.623 2.65065 18.0052 2.90664C17.3872 3.16264 17.0939 3.87091 17.3498 4.48885L20.2466 11.4824Z" fill="#00564E"/>
<path d="M40.171 12.1378C40.3225 12.2006 40.4795 12.2303 40.634 12.2303C41.1091 12.2303 41.56 11.9487 41.7532 11.4824L44.6502 4.4889C44.906 3.87096 44.6126 3.16268 43.9948 2.90669C43.3772 2.6507 42.6687 2.94423 42.4127 3.56205L39.5156 10.5556C39.2597 11.1734 39.5531 11.8818 40.171 12.1378Z" fill="#00564E"/>
<path d="M0.747895 23.0587L7.27677 25.7631C7.42826 25.826 7.5852 25.8556 7.73971 25.8556C8.21489 25.8556 8.66572 25.5741 8.85898 25.1078C9.11485 24.4899 8.82144 23.7815 8.20362 23.5257L1.67474 20.8213C1.05693 20.5654 0.348649 20.8587 0.0926577 21.4767C-0.163455 22.0944 0.129954 22.8027 0.747895 23.0587Z" fill="#00564E"/>
<path d="M53.1409 25.1078C53.3341 25.5741 53.7849 25.8557 54.2602 25.8557C54.4146 25.8557 54.5716 25.826 54.7231 25.7631L61.252 23.0588C61.8699 22.8029 62.1633 22.0945 61.9073 21.4767C61.6515 20.8587 60.9429 20.5653 60.3252 20.8213L53.7964 23.5257C53.1785 23.7814 52.8851 24.4898 53.1409 25.1078Z" fill="#00564E"/>
<path d="M12.3414 17.3328C12.5779 17.5692 12.8877 17.6874 13.1976 17.6874C13.5075 17.6874 13.8175 17.5691 14.0539 17.3328C14.5267 16.8599 14.5269 16.0931 14.0539 15.6202L8.70117 10.2675C8.2283 9.79455 7.46154 9.79467 6.98867 10.2675C6.5158 10.7404 6.51568 11.5072 6.98867 11.98L12.3414 17.3328Z" fill="#00564E"/>
<path d="M84.78 52.9H78.7L77.58 56H75.66L80.7 42.14H82.8L87.82 56H85.9L84.78 52.9ZM84.26 51.42L81.74 44.38L79.22 51.42H84.26ZM94.5366 44.86C95.4832 44.86 96.3099 45.0667 97.0166 45.48C97.7366 45.8933 98.2699 46.4133 98.6166 47.04V45.04H100.457V56.24C100.457 57.24 100.243 58.1267 99.8166 58.9C99.3899 59.6867 98.7766 60.3 97.9766 60.74C97.1899 61.18 96.2699 61.4 95.2166 61.4C93.7766 61.4 92.5766 61.06 91.6166 60.38C90.6566 59.7 90.0899 58.7733 89.9166 57.6H91.7166C91.9166 58.2667 92.3299 58.8 92.9566 59.2C93.5832 59.6133 94.3366 59.82 95.2166 59.82C96.2166 59.82 97.0299 59.5067 97.6566 58.88C98.2966 58.2533 98.6166 57.3733 98.6166 56.24V53.94C98.2566 54.58 97.7232 55.1133 97.0166 55.54C96.3099 55.9667 95.4832 56.18 94.5366 56.18C93.5632 56.18 92.6766 55.94 91.8766 55.46C91.0899 54.98 90.4699 54.3067 90.0166 53.44C89.5632 52.5733 89.3366 51.5867 89.3366 50.48C89.3366 49.36 89.5632 48.38 90.0166 47.54C90.4699 46.6867 91.0899 46.0267 91.8766 45.56C92.6766 45.0933 93.5632 44.86 94.5366 44.86ZM98.6166 50.5C98.6166 49.6733 98.4499 48.9533 98.1166 48.34C97.7832 47.7267 97.3299 47.26 96.7566 46.94C96.1966 46.6067 95.5766 46.44 94.8966 46.44C94.2166 46.44 93.5966 46.6 93.0366 46.92C92.4766 47.24 92.0299 47.7067 91.6966 48.32C91.3632 48.9333 91.1966 49.6533 91.1966 50.48C91.1966 51.32 91.3632 52.0533 91.6966 52.68C92.0299 53.2933 92.4766 53.7667 93.0366 54.1C93.5966 54.42 94.2166 54.58 94.8966 54.58C95.5766 54.58 96.1966 54.42 96.7566 54.1C97.3299 53.7667 97.7832 53.2933 98.1166 52.68C98.4499 52.0533 98.6166 51.3267 98.6166 50.5ZM105.352 46.82C105.672 46.1933 106.126 45.7067 106.712 45.36C107.312 45.0133 108.039 44.84 108.892 44.84V46.72H108.412C106.372 46.72 105.352 47.8267 105.352 50.04V56H103.532V45.04H105.352V46.82ZM115.773 56.18C114.746 56.18 113.813 55.9467 112.973 55.48C112.146 55.0133 111.493 54.3533 111.013 53.5C110.546 52.6333 110.313 51.6333 110.313 50.5C110.313 49.38 110.553 48.3933 111.033 47.54C111.526 46.6733 112.193 46.0133 113.033 45.56C113.873 45.0933 114.813 44.86 115.853 44.86C116.893 44.86 117.833 45.0933 118.673 45.56C119.513 46.0133 120.173 46.6667 120.653 47.52C121.146 48.3733 121.393 49.3667 121.393 50.5C121.393 51.6333 121.14 52.6333 120.633 53.5C120.14 54.3533 119.466 55.0133 118.613 55.48C117.76 55.9467 116.813 56.18 115.773 56.18ZM115.773 54.58C116.426 54.58 117.04 54.4267 117.613 54.12C118.186 53.8133 118.646 53.3533 118.993 52.74C119.353 52.1267 119.533 51.38 119.533 50.5C119.533 49.62 119.36 48.8733 119.013 48.26C118.666 47.6467 118.213 47.1933 117.653 46.9C117.093 46.5933 116.486 46.44 115.833 46.44C115.166 46.44 114.553 46.5933 113.993 46.9C113.446 47.1933 113.006 47.6467 112.673 48.26C112.34 48.8733 112.173 49.62 112.173 50.5C112.173 51.3933 112.333 52.1467 112.653 52.76C112.986 53.3733 113.426 53.8333 113.973 54.14C114.52 54.4333 115.12 54.58 115.773 54.58ZM125.606 47.06C125.966 46.4333 126.499 45.9133 127.206 45.5C127.926 45.0733 128.759 44.86 129.706 44.86C130.679 44.86 131.559 45.0933 132.346 45.56C133.146 46.0267 133.773 46.6867 134.226 47.54C134.679 48.38 134.906 49.36 134.906 50.48C134.906 51.5867 134.679 52.5733 134.226 53.44C133.773 54.3067 133.146 54.98 132.346 55.46C131.559 55.94 130.679 56.18 129.706 56.18C128.773 56.18 127.946 55.9733 127.226 55.56C126.519 55.1333 125.979 54.6067 125.606 53.98V61.2H123.786V45.04H125.606V47.06ZM133.046 50.48C133.046 49.6533 132.879 48.9333 132.546 48.32C132.213 47.7067 131.759 47.24 131.186 46.92C130.626 46.6 130.006 46.44 129.326 46.44C128.659 46.44 128.039 46.6067 127.466 46.94C126.906 47.26 126.453 47.7333 126.106 48.36C125.773 48.9733 125.606 49.6867 125.606 50.5C125.606 51.3267 125.773 52.0533 126.106 52.68C126.453 53.2933 126.906 53.7667 127.466 54.1C128.039 54.42 128.659 54.58 129.326 54.58C130.006 54.58 130.626 54.42 131.186 54.1C131.759 53.7667 132.213 53.2933 132.546 52.68C132.879 52.0533 133.046 51.32 133.046 50.48ZM147.302 50.1C147.302 50.4467 147.282 50.8133 147.242 51.2H138.482C138.548 52.28 138.915 53.1267 139.582 53.74C140.262 54.34 141.082 54.64 142.042 54.64C142.828 54.64 143.482 54.46 144.002 54.1C144.535 53.7267 144.908 53.2333 145.122 52.62H147.082C146.788 53.6733 146.202 54.5333 145.322 55.2C144.442 55.8533 143.348 56.18 142.042 56.18C141.002 56.18 140.068 55.9467 139.242 55.48C138.428 55.0133 137.788 54.3533 137.322 53.5C136.855 52.6333 136.622 51.6333 136.622 50.5C136.622 49.3667 136.848 48.3733 137.302 47.52C137.755 46.6667 138.388 46.0133 139.202 45.56C140.028 45.0933 140.975 44.86 142.042 44.86C143.082 44.86 144.002 45.0867 144.802 45.54C145.602 45.9933 146.215 46.62 146.642 47.42C147.082 48.2067 147.302 49.1 147.302 50.1ZM145.422 49.72C145.422 49.0267 145.268 48.4333 144.962 47.94C144.655 47.4333 144.235 47.0533 143.702 46.8C143.182 46.5333 142.602 46.4 141.962 46.4C141.042 46.4 140.255 46.6933 139.602 47.28C138.962 47.8667 138.595 48.68 138.502 49.72H145.422ZM149.024 50.5C149.024 49.3667 149.251 48.38 149.704 47.54C150.157 46.6867 150.784 46.0267 151.584 45.56C152.397 45.0933 153.324 44.86 154.364 44.86C155.711 44.86 156.817 45.1867 157.684 45.84C158.564 46.4933 159.144 47.4 159.424 48.56H157.464C157.277 47.8933 156.911 47.3667 156.364 46.98C155.831 46.5933 155.164 46.4 154.364 46.4C153.324 46.4 152.484 46.76 151.844 47.48C151.204 48.1867 150.884 49.1933 150.884 50.5C150.884 51.82 151.204 52.84 151.844 53.56C152.484 54.28 153.324 54.64 154.364 54.64C155.164 54.64 155.831 54.4533 156.364 54.08C156.897 53.7067 157.264 53.1733 157.464 52.48H159.424C159.131 53.6 158.544 54.5 157.664 55.18C156.784 55.8467 155.684 56.18 154.364 56.18C153.324 56.18 152.397 55.9467 151.584 55.48C150.784 55.0133 150.157 54.3533 149.704 53.5C149.251 52.6467 149.024 51.6467 149.024 50.5ZM171.573 45.04V56H169.753V54.38C169.406 54.94 168.919 55.38 168.293 55.7C167.679 56.0067 166.999 56.16 166.253 56.16C165.399 56.16 164.633 55.9867 163.953 55.64C163.273 55.28 162.733 54.7467 162.333 54.04C161.946 53.3333 161.753 52.4733 161.753 51.46V45.04H163.553V51.22C163.553 52.3 163.826 53.1333 164.373 53.72C164.919 54.2933 165.666 54.58 166.613 54.58C167.586 54.58 168.353 54.28 168.913 53.68C169.473 53.08 169.753 52.2067 169.753 51.06V45.04H171.573ZM173.965 50.48C173.965 49.36 174.192 48.38 174.645 47.54C175.099 46.6867 175.719 46.0267 176.505 45.56C177.305 45.0933 178.192 44.86 179.165 44.86C180.125 44.86 180.959 45.0667 181.665 45.48C182.372 45.8933 182.899 46.4133 183.245 47.04V45.04H185.085V56H183.245V53.96C182.885 54.6 182.345 55.1333 181.625 55.56C180.919 55.9733 180.092 56.18 179.145 56.18C178.172 56.18 177.292 55.94 176.505 55.46C175.719 54.98 175.099 54.3067 174.645 53.44C174.192 52.5733 173.965 51.5867 173.965 50.48ZM183.245 50.5C183.245 49.6733 183.079 48.9533 182.745 48.34C182.412 47.7267 181.959 47.26 181.385 46.94C180.825 46.6067 180.205 46.44 179.525 46.44C178.845 46.44 178.225 46.6 177.665 46.92C177.105 47.24 176.659 47.7067 176.325 48.32C175.992 48.9333 175.825 49.6533 175.825 50.48C175.825 51.32 175.992 52.0533 176.325 52.68C176.659 53.2933 177.105 53.7667 177.665 54.1C178.225 54.42 178.845 54.58 179.525 54.58C180.205 54.58 180.825 54.42 181.385 54.1C181.959 53.7667 182.412 53.2933 182.745 52.68C183.079 52.0533 183.245 51.3267 183.245 50.5ZM181.825 41.94L177.565 44.22V42.86L181.825 40.36V41.94ZM189.981 46.82C190.301 46.1933 190.754 45.7067 191.341 45.36C191.941 45.0133 192.668 44.84 193.521 44.84V46.72H193.041C191.001 46.72 189.981 47.8267 189.981 50.04V56H188.161V45.04H189.981V46.82ZM196.562 43.26C196.215 43.26 195.922 43.14 195.682 42.9C195.442 42.66 195.322 42.3667 195.322 42.02C195.322 41.6733 195.442 41.38 195.682 41.14C195.922 40.9 196.215 40.78 196.562 40.78C196.895 40.78 197.175 40.9 197.402 41.14C197.642 41.38 197.762 41.6733 197.762 42.02C197.762 42.3667 197.642 42.66 197.402 42.9C197.175 43.14 196.895 43.26 196.562 43.26ZM197.442 45.04V56H195.622V45.04H197.442ZM199.864 50.48C199.864 49.36 200.091 48.38 200.544 47.54C200.997 46.6867 201.617 46.0267 202.404 45.56C203.204 45.0933 204.091 44.86 205.064 44.86C206.024 44.86 206.857 45.0667 207.564 45.48C208.271 45.8933 208.797 46.4133 209.144 47.04V45.04H210.984V56H209.144V53.96C208.784 54.6 208.244 55.1333 207.524 55.56C206.817 55.9733 205.991 56.18 205.044 56.18C204.071 56.18 203.191 55.94 202.404 55.46C201.617 54.98 200.997 54.3067 200.544 53.44C200.091 52.5733 199.864 51.5867 199.864 50.48ZM209.144 50.5C209.144 49.6733 208.977 48.9533 208.644 48.34C208.311 47.7267 207.857 47.26 207.284 46.94C206.724 46.6067 206.104 46.44 205.424 46.44C204.744 46.44 204.124 46.6 203.564 46.92C203.004 47.24 202.557 47.7067 202.224 48.32C201.891 48.9333 201.724 49.6533 201.724 50.48C201.724 51.32 201.891 52.0533 202.224 52.68C202.557 53.2933 203.004 53.7667 203.564 54.1C204.124 54.42 204.744 54.58 205.424 54.58C206.104 54.58 206.724 54.42 207.284 54.1C207.857 53.7667 208.311 53.2933 208.644 52.68C208.977 52.0533 209.144 51.3267 209.144 50.5Z" fill="#00564E"/>
<path d="M90.68 22.16V36H88.86V25.68L84.26 36H82.98L78.36 25.66V36H76.54V22.16H78.5L83.62 33.6L88.74 22.16H90.68ZM93.0866 30.48C93.0866 29.36 93.3132 28.38 93.7666 27.54C94.2199 26.6867 94.8399 26.0267 95.6266 25.56C96.4266 25.0933 97.3132 24.86 98.2866 24.86C99.2466 24.86 100.08 25.0667 100.787 25.48C101.493 25.8933 102.02 26.4133 102.367 27.04V25.04H104.207V36H102.367V33.96C102.007 34.6 101.467 35.1333 100.747 35.56C100.04 35.9733 99.2132 36.18 98.2666 36.18C97.2932 36.18 96.4132 35.94 95.6266 35.46C94.8399 34.98 94.2199 34.3067 93.7666 33.44C93.3132 32.5733 93.0866 31.5867 93.0866 30.48ZM102.367 30.5C102.367 29.6733 102.2 28.9533 101.867 28.34C101.533 27.7267 101.08 27.26 100.507 26.94C99.9466 26.6067 99.3266 26.44 98.6466 26.44C97.9666 26.44 97.3466 26.6 96.7866 26.92C96.2266 27.24 95.7799 27.7067 95.4466 28.32C95.1132 28.9333 94.9466 29.6533 94.9466 30.48C94.9466 31.32 95.1132 32.0533 95.4466 32.68C95.7799 33.2933 96.2266 33.7667 96.7866 34.1C97.3466 34.42 97.9666 34.58 98.6466 34.58C99.3266 34.58 99.9466 34.42 100.507 34.1C101.08 33.7667 101.533 33.2933 101.867 32.68C102.2 32.0533 102.367 31.3267 102.367 30.5ZM109.102 26.82C109.422 26.1933 109.876 25.7067 110.462 25.36C111.062 25.0133 111.789 24.84 112.642 24.84V26.72H112.162C110.122 26.72 109.102 27.8267 109.102 30.04V36H107.282V25.04H109.102V26.82ZM115.683 23.26C115.336 23.26 115.043 23.14 114.803 22.9C114.563 22.66 114.443 22.3667 114.443 22.02C114.443 21.6733 114.563 21.38 114.803 21.14C115.043 20.9 115.336 20.78 115.683 20.78C116.016 20.78 116.296 20.9 116.523 21.14C116.763 21.38 116.883 21.6733 116.883 22.02C116.883 22.3667 116.763 22.66 116.523 22.9C116.296 23.14 116.016 23.26 115.683 23.26ZM116.563 25.04V36H114.743V25.04H116.563ZM125.005 24.84C126.338 24.84 127.418 25.2467 128.245 26.06C129.072 26.86 129.485 28.02 129.485 29.54V36H127.685V29.8C127.685 28.7067 127.412 27.8733 126.865 27.3C126.318 26.7133 125.572 26.42 124.625 26.42C123.665 26.42 122.898 26.72 122.325 27.32C121.765 27.92 121.485 28.7933 121.485 29.94V36H119.665V25.04H121.485V26.6C121.845 26.04 122.332 25.6067 122.945 25.3C123.572 24.9933 124.258 24.84 125.005 24.84ZM137.898 24.84C138.725 24.84 139.471 25.02 140.138 25.38C140.805 25.7267 141.325 26.2533 141.698 26.96C142.085 27.6667 142.278 28.5267 142.278 29.54V36H140.478V29.8C140.478 28.7067 140.205 27.8733 139.658 27.3C139.111 26.7133 138.365 26.42 137.418 26.42C136.458 26.42 135.691 26.72 135.118 27.32C134.558 27.92 134.278 28.7933 134.278 29.94V36H132.458V21.2H134.278V26.6C134.638 26.04 135.131 25.6067 135.758 25.3C136.398 24.9933 137.111 24.84 137.898 24.84ZM150.031 36.18C149.004 36.18 148.071 35.9467 147.231 35.48C146.404 35.0133 145.751 34.3533 145.271 33.5C144.804 32.6333 144.571 31.6333 144.571 30.5C144.571 29.38 144.811 28.3933 145.291 27.54C145.784 26.6733 146.451 26.0133 147.291 25.56C148.131 25.0933 149.071 24.86 150.111 24.86C151.151 24.86 152.091 25.0933 152.931 25.56C153.771 26.0133 154.431 26.6667 154.911 27.52C155.404 28.3733 155.651 29.3667 155.651 30.5C155.651 31.6333 155.398 32.6333 154.891 33.5C154.398 34.3533 153.724 35.0133 152.871 35.48C152.018 35.9467 151.071 36.18 150.031 36.18ZM150.031 34.58C150.684 34.58 151.298 34.4267 151.871 34.12C152.444 33.8133 152.904 33.3533 153.251 32.74C153.611 32.1267 153.791 31.38 153.791 30.5C153.791 29.62 153.618 28.8733 153.271 28.26C152.924 27.6467 152.471 27.1933 151.911 26.9C151.351 26.5933 150.744 26.44 150.091 26.44C149.424 26.44 148.811 26.5933 148.251 26.9C147.704 27.1933 147.264 27.6467 146.931 28.26C146.598 28.8733 146.431 29.62 146.431 30.5C146.431 31.3933 146.591 32.1467 146.911 32.76C147.244 33.3733 147.684 33.8333 148.231 34.14C148.778 34.4333 149.378 34.58 150.031 34.58Z" fill="#00564E"/>
</svg>
