<svg width="50" height="50" viewBox="0 0 50 50" fill="none" xmlns="http://www.w3.org/2000/svg">
<path d="M25.028 44.6421C34.414 44.6421 42.0229 37.0332 42.0229 27.6472C42.0229 18.2612 34.414 10.6523 25.028 10.6523C15.6419 10.6523 8.03308 18.2612 8.03308 27.6472C8.03308 37.0332 15.6419 44.6421 25.028 44.6421Z" fill="#F5C181"/>
<path d="M24.213 31.9951C36.6535 27.3423 49.0231 27.3423 49.0231 27.3423L49.0183 49.023C49.0183 49.023 40.7055 49.023 30.6151 49.023L24.213 31.9951Z" fill="#21857F"/>
<path d="M0.982971 27.1703C0.982971 27.1703 28.5852 25.6035 41.0215 49.0232C33.0146 49.0232 0.982971 49.0232 0.982971 49.0232V27.1703Z" fill="#33ADA6"/>
<path d="M17.2178 36.3097L17.154 36.2689C16.6989 35.9794 16.0953 36.1138 15.8058 36.5687C15.5164 37.0238 15.6506 37.6274 16.1056 37.9169L16.1668 37.9558C16.3296 38.0598 16.5115 38.1095 16.6914 38.1095C17.0136 38.1095 17.3291 37.9501 17.5154 37.6583C17.8056 37.2037 17.6724 36.5999 17.2178 36.3097Z" fill="#00564E"/>
<path d="M49.7137 26.6521C49.5306 26.4689 49.2821 26.366 49.023 26.366C48.8058 26.366 46.4903 26.3758 42.9457 26.7424C42.7624 22.9674 41.4285 19.4267 39.0587 16.4533C36.5769 13.3395 33.0906 11.1115 29.2419 10.1798C28.7178 10.0532 28.1899 10.375 28.063 10.8991C27.9362 11.4233 28.2582 11.9512 28.7824 12.078C35.7646 13.7684 40.7054 19.8355 41.0011 26.9663C36.3262 27.5594 30.1349 28.7379 23.8708 31.0806C23.8246 31.0979 23.7811 31.1194 23.7392 31.1426C21.4956 30.0521 19.1171 29.1282 16.6191 28.379C13.8542 27.5498 11.2625 27.0273 9.01208 26.7001C9.42077 19.6981 14.3573 13.7389 21.2169 12.078C21.7412 11.9511 22.0632 11.4232 21.9363 10.8991C21.8093 10.3749 21.2811 10.0527 20.7574 10.1798C13.1036 12.0329 7.58376 18.6549 7.07126 26.4537C3.46043 26.0633 1.09461 26.1859 0.92772 26.1953C0.410729 26.2246 0.00653076 26.6524 0.00653076 27.1703V49.0232C0.00653076 49.5625 0.443737 49.9997 0.983091 49.9997H49.0185C49.5577 49.9997 49.9997 49.5626 49.9998 49.0234V27.3428C49.9997 27.0838 49.8969 26.8353 49.7137 26.6521ZM33.8787 38.0617C40.8496 35.1184 46.3379 34.7251 48.0449 34.6779L48.0439 39.1997C46.2268 39.315 42.1481 39.8211 37.5518 42.0045C36.4168 40.6048 35.1914 39.2894 33.8787 38.0617ZM48.0463 28.3431L48.0453 32.7211C46.131 32.7596 40.0433 33.1756 32.2646 36.6326C31.5625 36.0448 30.8386 35.4796 30.0924 34.9382C28.8156 34.0118 27.4734 33.1545 26.0724 32.3659C35.6952 29.054 45.0637 28.452 48.0463 28.3431ZM1.95946 38.6247C2.90096 39.0224 4.28475 39.6785 5.83279 40.646C8.12448 42.0785 11.2036 44.476 13.5615 48.0467H1.95946V38.6247ZM30.6152 48.0467H29.2487C26.6867 44.2337 23.5308 40.902 19.858 38.1408C19.4268 37.8166 18.8146 37.9035 18.4906 38.3345C18.1665 38.7657 18.2532 39.3779 18.6843 39.7019C21.8281 42.0654 24.5746 44.8673 26.8702 48.0467H15.8619C13.234 43.5619 9.51618 40.6373 6.81326 38.9557C4.70164 37.642 2.89676 36.8744 1.95946 36.5179V32.2332C3.91014 32.5985 8.2655 33.6329 13.17 36.2147C13.3151 36.2912 13.4707 36.3273 13.6241 36.3273C13.975 36.3273 14.3142 36.1376 14.489 35.8054C14.7403 35.3282 14.5571 34.7377 14.0798 34.4864C8.5988 31.6011 3.85242 30.5678 1.95946 30.2452V28.1269C4.09246 28.1256 9.67858 28.3268 16.1222 30.2691C26.4899 33.3941 34.2995 39.3706 39.3603 48.0467H30.6152ZM41.6039 48.0467C40.7471 46.486 39.8021 44.9997 38.7725 43.5904C42.7945 41.7567 46.3881 41.2832 48.0434 41.1614L48.0418 48.0466H41.6039V48.0467Z" fill="#00564E"/>
<path d="M25 11.6289H25.0285C25.5679 11.6289 26.0051 11.1917 26.0051 10.6523C26.0051 10.113 25.5679 9.67578 25.0285 9.67578H25C24.4606 9.67578 24.0234 10.113 24.0234 10.6523C24.0234 11.1917 24.4606 11.6289 25 11.6289Z" fill="#00564E"/>
<path d="M25 8.31732C25.5394 8.31732 25.9766 7.88011 25.9766 7.34076V0.976805C25.9766 0.43745 25.5394 0.000244141 25 0.000244141C24.4606 0.000244141 24.0234 0.43745 24.0234 0.976805V7.34076C24.0234 7.88011 24.4606 8.31732 25 8.31732Z" fill="#00564E"/>
<path d="M39.3567 14.264C39.6066 14.264 39.8566 14.1686 40.0473 13.978L44.364 9.6612C44.7454 9.27986 44.7454 8.6615 44.364 8.28015C43.9827 7.8988 43.3643 7.8988 42.983 8.28015L38.6662 12.5969C38.2849 12.9783 38.2849 13.5966 38.6662 13.978C38.8569 14.1687 39.1068 14.264 39.3567 14.264Z" fill="#00564E"/>
<path d="M16.3279 9.25981C16.4836 9.63598 16.8472 9.86294 17.2305 9.86294C17.355 9.86294 17.4817 9.83901 17.6039 9.78833C18.1022 9.58188 18.3388 9.01069 18.1324 8.51235L15.7961 2.87242C15.5898 2.37408 15.0185 2.13746 14.5203 2.34391C14.0219 2.55035 13.7854 3.12154 13.9918 3.61988L16.3279 9.25981Z" fill="#00564E"/>
<path d="M32.396 9.78856C32.5182 9.83924 32.6448 9.86316 32.7694 9.86316C33.1526 9.86316 33.5161 9.63611 33.672 9.26004L36.0082 3.62011C36.2146 3.12177 35.9779 2.55058 35.4797 2.34414C34.9817 2.13769 34.4103 2.37441 34.2038 2.87265L31.8674 8.51258C31.6611 9.01082 31.8977 9.58211 32.396 9.78856Z" fill="#00564E"/>
<path d="M0.603092 18.5958L5.86832 20.7767C5.99048 20.8274 6.11705 20.8513 6.24166 20.8513C6.62486 20.8513 6.98843 20.6243 7.14429 20.2482C7.35064 19.75 7.11402 19.1787 6.61578 18.9723L1.35055 16.7914C0.85231 16.585 0.28112 16.8216 0.0746747 17.3199C-0.131868 17.818 0.104753 18.3893 0.603092 18.5958Z" fill="#00564E"/>
<path d="M42.8556 20.2482C43.0113 20.6243 43.3749 20.8514 43.7582 20.8514C43.8827 20.8514 44.0094 20.8274 44.1315 20.7768L49.3968 18.5958C49.8951 18.3895 50.1317 17.8182 49.9253 17.3199C49.7189 16.8216 49.1475 16.585 48.6494 16.7914L43.3842 18.9724C42.8858 19.1786 42.6492 19.7499 42.8556 20.2482Z" fill="#00564E"/>
<path d="M9.95271 13.9779C10.1434 14.1687 10.3933 14.264 10.6432 14.264C10.8931 14.264 11.1431 14.1686 11.3338 13.9779C11.7151 13.5966 11.7152 12.9782 11.3338 12.5969L7.01707 8.28019C6.63573 7.89874 6.01737 7.89884 5.63602 8.28019C5.25468 8.66153 5.25458 9.27989 5.63602 9.66124L9.95271 13.9779Z" fill="#00564E"/>
</svg>
