<svg width="300" height="300" viewBox="0 0 300 300" fill="none" xmlns="http://www.w3.org/2000/svg">
<g opacity="0.5">
<g clip-path="url(#clip0)">
<path d="M294 64.1254H6.0011C2.68396 64.1254 0 61.4414 0 58.1243V16.9395C0 7.60071 7.60071 0 16.9395 0H283.062C292.4 0 300.001 7.60071 300.001 16.9395V58.1243C300.001 61.4414 297.317 64.1254 294 64.1254ZM11.9996 52.1257H287.999V16.9395C287.999 14.2145 285.784 11.9996 283.062 11.9996H16.9395C14.2145 11.9996 11.9996 14.2145 11.9996 16.9395V52.1257Z" fill="#F5C181"/>
<path d="M283.062 300.001H16.9395C7.60071 300.001 0 292.4 0 283.062V58.1243C0 54.8097 2.68396 52.1258 6.0011 52.1258H294C297.317 52.1258 300.001 54.8097 300.001 58.1243V283.062C300.001 292.4 292.4 300.001 283.062 300.001ZM11.9996 64.1254V283.062C11.9996 285.784 14.2145 287.999 16.9395 287.999H283.062C285.784 287.999 287.999 285.784 287.999 283.062V64.1254H11.9996Z" fill="#F5C181"/>
<path d="M260.436 38.0625H88.311C84.9965 38.0625 82.3125 35.3785 82.3125 32.0614C82.3125 28.7468 84.9965 26.0629 88.311 26.0629H260.436C263.753 26.0629 266.437 28.7468 266.437 32.0614C266.437 35.3785 263.753 38.0625 260.436 38.0625Z" fill="#F5C181"/>
<path d="M39.5402 38.0394C37.9816 38.0394 36.4819 37.4421 35.3386 36.2988C34.7413 35.7605 34.3184 35.0966 34.021 34.3762C33.7211 33.5969 33.5391 32.8766 33.5391 32.0383C33.5391 31.259 33.7211 30.4797 34.021 29.7594C34.3184 29.0391 34.7413 28.3777 35.3386 27.8368C35.5796 27.5394 35.877 27.2985 36.241 27.0575C36.5409 26.8781 36.8972 26.6371 37.2612 26.5192C37.6176 26.3961 37.9816 26.2782 38.3968 26.1552C40.3784 25.7399 42.4164 26.3961 43.8007 27.8368C44.339 28.3777 44.8184 29.0391 45.1183 29.7594C45.4182 30.4797 45.5413 31.259 45.5413 32.0383C45.5413 33.6559 44.9414 35.1555 43.8007 36.2988C43.2598 36.8372 42.5984 37.3191 41.878 37.6165C41.1577 37.9164 40.3784 38.0394 39.5402 38.0394Z" fill="#F5C181"/>
<path d="M63.5395 38.0395C62.7603 38.0395 61.981 37.9164 61.2606 37.6165C60.5403 37.3191 59.8789 36.8372 59.338 36.2989C58.7407 35.7605 58.3203 35.0966 58.0204 34.3762C57.723 33.597 57.541 32.8766 57.541 32.0384C57.541 31.2591 57.723 30.4798 58.0204 29.7594C58.3203 29.0391 58.7407 28.3777 59.338 27.8368C61.5605 25.5579 65.639 25.6168 67.8 27.8368C68.9434 28.916 69.5406 30.4798 69.5406 32.0384C69.5406 33.6559 68.9434 35.1555 67.8 36.2989C66.6567 37.4422 65.1571 38.0395 63.5395 38.0395Z" fill="#F5C181"/>
<path d="M97.3977 214.114V193.389H62.0371V186.601L95.9955 138.01H107.111V185.314H117.77V193.389H107.111V214.114H97.3977ZM97.3977 185.314V159.907C97.3977 155.923 97.5105 151.947 97.7489 147.961H97.3977C95.0624 152.414 93.1833 155.695 91.0762 159.202L72.4576 185.075V185.314H97.3977Z" fill="#F5C181"/>
<path d="M176.229 175.247C176.229 201.12 166.629 215.404 149.774 215.404C134.901 215.404 124.834 201.474 124.596 176.295C124.596 150.776 135.606 136.723 151.061 136.723C167.096 136.723 176.229 151.004 176.229 175.247ZM134.901 176.411C134.901 196.201 140.994 207.442 150.356 207.442C160.889 207.442 165.924 195.145 165.924 175.714C165.924 156.982 161.128 144.683 150.469 144.683C141.461 144.683 134.901 155.695 134.901 176.411Z" fill="#F5C181"/>
<path d="M217.587 214.114V193.389H182.227V186.601L216.185 138.01H227.31V185.314H237.959V193.389H227.31V214.114H217.587ZM217.587 185.314V159.907C217.587 155.923 217.703 151.947 217.941 147.961H217.587C215.252 152.414 213.373 155.695 211.266 159.202L192.647 185.075V185.314H217.587Z" fill="#F5C181"/>
</g>
</g>
<defs>
<clipPath id="clip0">
<rect width="300" height="300" fill="white"/>
</clipPath>
</defs>
</svg>
