<svg width="496" height="496" viewBox="0 0 496 496" fill="none" xmlns="http://www.w3.org/2000/svg">
<path d="M248 92C234.4 92 224 81.6 224 68V24C224 10.4 234.4 0 248 0C261.6 0 272 10.4 272 24V68C272 80.8 261.6 92 248 92Z" fill="#FDE1BF"/>
<path d="M248 496C234.4 496 224 485.6 224 472V428C224 414.4 234.4 404 248 404C261.6 404 272 414.4 272 428V472C272 485.6 261.6 496 248 496Z" fill="#DCA158"/>
<path d="M157.601 116C149.601 116 141.601 112 136.801 104L115.201 66.4C108.801 55.2 112.801 40 124.001 33.6C135.201 27.2 150.401 31.2 156.801 42.4L178.401 80C184.801 91.2 180.801 106.4 169.601 112.8C166.401 114.4 161.601 116 157.601 116Z" fill="#FFE5C6"/>
<path d="M359.999 465.6C351.999 465.6 343.999 461.6 339.199 453.6L317.599 416C311.199 404.8 315.199 389.6 326.399 383.2C337.599 376.8 352.799 380.8 359.199 392L380.799 429.6C387.199 440.8 383.199 456 371.999 462.4C367.999 464.8 363.999 465.6 359.999 465.6Z" fill="#EFB56E"/>
<path d="M91.9993 181.6C87.9993 181.6 83.9993 180.8 79.9993 178.4L42.3993 156.8C31.1993 150.4 27.1993 135.2 33.5993 124C39.9993 112.8 55.1993 108.8 66.3993 115.2L103.999 136.8C115.199 143.2 119.199 158.4 112.799 169.6C107.999 177.6 99.9993 181.6 91.9993 181.6Z" fill="#FFEBD3"/>
<path d="M442.401 384C438.401 384 434.401 383.2 430.401 380.8L392.001 359.2C380.801 352.8 376.801 337.6 383.201 326.4C389.601 315.2 404.801 311.2 416.001 317.6L453.601 339.2C464.801 345.6 468.801 360.8 462.401 372C458.401 380 450.401 384 442.401 384Z" fill="#F9C07A"/>
<path d="M68 272H24C10.4 272 0 261.6 0 248C0 234.4 10.4 224 24 224H68C81.6 224 92 234.4 92 248C92 261.6 80.8 272 68 272Z" fill="#FFEFDB"/>
<path d="M472 272H428C414.4 272 404 261.6 404 248C404 234.4 414.4 224 428 224H472C485.6 224 496 234.4 496 248C496 261.6 485.6 272 472 272Z" fill="#FCD19D"/>
<path d="M53.6005 384C45.6005 384 37.6005 380 32.8005 372C26.4005 360.8 30.4005 345.6 41.6005 339.2L79.2005 317.6C90.4005 311.2 105.6 315.2 112 326.4C118.4 337.6 114.4 352.8 103.2 359.2L65.6005 380.8C62.4005 383.2 58.4005 384 53.6005 384Z" fill="#DD953C"/>
<path d="M404.001 181.6C396.001 181.6 388.001 177.6 383.201 169.6C376.801 158.4 380.801 143.2 392.001 136.8L429.601 115.2C440.801 108.8 456.001 112.8 462.401 124C468.801 135.2 464.801 150.4 453.601 156.8L416.001 178.4C412.001 180.8 408.001 181.6 404.001 181.6Z" fill="#FFD7A5"/>
<path d="M136.001 465.6C132.001 465.6 128.001 464.8 124.001 462.4C112.801 456 108.801 440.8 115.201 429.6L136.801 392C143.201 380.8 158.401 376.8 169.601 383.2C180.801 389.6 184.801 404.8 178.401 416L156.801 453.6C152.001 461.6 144.001 465.6 136.001 465.6Z" fill="#D1964E"/>
<path d="M338.399 116C334.399 116 330.399 115.2 326.399 112.8C315.199 106.4 311.199 91.2 317.599 80L339.199 42.4C345.599 31.2 360.799 27.2 371.999 33.6C383.199 40 387.199 55.2 380.799 66.4L359.199 104C354.399 111.2 346.399 116 338.399 116Z" fill="#FFDFB8"/>
</svg>
