<svg height="512" viewBox="0 0 512 512" width="512" xmlns="http://www.w3.org/2000/svg"><g id="Solid"><path d="m72 192a16 16 0 0 0 32 0v-32h-12l-16.8 22.4a16.1 16.1 0 0 0 -3.2 9.6z"/><path d="m112 328a88.1 88.1 0 0 1 88-88h44.084l-56.538-138.2a35.079 35.079 0 0 0 -67.546 13.279v78.145a31.911 31.911 0 0 1 -4.737 16.737c-6.725 10.928-20.281 40.422-37.191 80.92a78.769 78.769 0 0 0 71.34 109.084 87.956 87.956 0 0 1 -37.412-71.965zm48-224a16 16 0 1 1 -16 16 16.019 16.019 0 0 1 16-16z"/><path d="m160 472v8h48v-8a23.885 23.885 0 0 1 1.376-8h-41.376a8.009 8.009 0 0 0 -8 8z"/><path d="m107.726 79.625 5.717 5.92a51.04 51.04 0 0 1 87.089 6.239l11.743-12.159a13.512 13.512 0 0 0 3.273-5.567 13.9 13.9 0 0 0 -2.93-12.485 12.417 12.417 0 0 0 -11.051-4.352 28.816 28.816 0 0 1 -29.7-17.424 12.927 12.927 0 0 0 -23.73 0 28.813 28.813 0 0 1 -29.7 17.425 12.426 12.426 0 0 0 -11.051 4.352 13.9 13.9 0 0 0 -2.93 12.484 13.5 13.5 0 0 0 3.27 5.567z"/><path d="m104 123.793-6.521.3-8.866.843a27.062 27.062 0 0 0 -23.43 19.064h38.817z"/><path d="m392 208a56.089 56.089 0 0 0 55.431-48h-55.431a8 8 0 0 1 0-16 56.089 56.089 0 0 0 55.431-48h-57.474a78.875 78.875 0 0 0 -70.933 43.838l-50.08 100.162h83.056a8 8 0 0 1 8 8 63.872 63.872 0 0 1 -22 48.252 8 8 0 0 1 6 7.748v8a55.882 55.882 0 0 1 -18.854 41.874 7.982 7.982 0 0 1 2.854 6.126 55.642 55.642 0 0 1 -8.622 29.8 78.734 78.734 0 0 0 20.534-16.706l30.067-34.362a8 8 0 0 1 6.021-2.732h16a56.089 56.089 0 0 0 55.431-48h-55.431a8 8 0 0 1 0-16 56.089 56.089 0 0 0 55.431-48h-55.431a8 8 0 0 1 0-16z"/><path d="m198.777 416-5.334 32h15.78l5.334-32h-14.557z"/><path d="m264 352h24a40.045 40.045 0 0 0 40-40h-64a8 8 0 0 1 0-16h32a48.078 48.078 0 0 0 47.333-40h-143.333a72 72 0 0 0 0 144h72a40.071 40.071 0 0 0 39.2-32h-47.2a8 8 0 0 1 0-16z"/><path d="m272 416h-9.223l-5.334 32h15.78l5.334-32z"/><path d="m296 464h-64a8.009 8.009 0 0 0 -8 8v8h80v-8a8.009 8.009 0 0 0 -8-8z"/></g></svg>