<svg height="512" viewBox="0 0 192 192" width="512" xmlns="http://www.w3.org/2000/svg"><path d="m174.327 69.2c-12.574-14.067-30.864-21.2-54.361-21.2a128.881 128.881 0 0 0 -32.387 4.056 31.912 31.912 0 0 0 -47.224 23.807c-27.114 21.569-39.013 47.729-39.523 48.87a8 8 0 0 0 7.293 11.267h167.762a16.007 16.007 0 0 1 -15.977 16h-63.91a32.013 32.013 0 0 0 -31.954 32h15.977a16.007 16.007 0 0 1 15.977-16h63.91a32.013 32.013 0 0 0 31.954-32v-7.611c.412-4.468 2.587-36.671-17.537-59.189zm-127.257 42.8a8 8 0 1 1 7.988-8 7.995 7.995 0 0 1 -7.988 8zm8.987-32a15.978 15.978 0 1 1 31.955 0z"/></svg>