<svg height="449pt" viewBox="-5 0 449 449.488" width="449pt" xmlns="http://www.w3.org/2000/svg"><path d="m241.636719 241.488281h-29.394531v40h17.96875zm0 0"/><path d="m230.210938 297.488281h-17.96875v40h29.394531zm0 0"/><path d="m323.925781 289.488281-13.714843-48h-17.96875v96h17.96875zm0 0"/><path d="m356.242188 281.488281v-40h-29.390626l11.425782 40zm0 0"/><path d="m356.242188 297.488281h-17.964844l-11.425782 40h29.390626zm0 0"/><path d="m204.242188 353.488281h160v8h-160zm0 0"/><path d="m276.242188 337.488281v-96h-17.964844l-13.714844 48 13.714844 48zm0 0"/><path d="m70.085938 129.488281h300.316406l-150.160156-94.542969zm0 0"/><path d="m220.242188 0-220 139.984375 6.515624 10.449219 209.222657-131.714844c2.605469-1.640625 5.921875-1.640625 8.527343 0l209.191407 131.714844 6.511719-10.449219zm0 0"/><path d="m76.242188 449.488281h80v-208h-80zm56-112h16v16h-16zm0 0"/><path d="m44.667969 145.488281-8.425781 5.304688v298.695312h24v-216c0-4.417969 3.582031-8 8-8h96c4.421874 0 8 3.582031 8 8v216h232v-298.695312l-8.421876-5.304688zm335.574219 224c0 4.417969-3.578126 8-8 8h-176c-4.417969 0-8-3.582031-8-8v-24c0-4.417969 3.582031-8 8-8v-104c0-4.417969 3.582031-8 8-8h160c4.421874 0 8 3.582031 8 8v104c4.421874 0 8 3.582031 8 8zm0 0"/></svg>