<?xml version="1.0" encoding="iso-8859-1"?>
<!-- Generator: Adobe Illustrator 19.0.0, SVG Export Plug-In . SVG Version: 6.00 Build 0)  -->
<svg version="1.1" id="Capa_1" xmlns="http://www.w3.org/2000/svg" xmlns:xlink="http://www.w3.org/1999/xlink" x="0px" y="0px"
	 viewBox="0 0 512 512" style="enable-background:new 0 0 512 512;" xml:space="preserve">
<g>
	<g>
		<path d="M424,396.308c-7.275,0-14.351,1.337-20.942,3.894c-5.239-12.807-14.058-24.384-25.912-33.752
			c-17.817-14.081-40.952-21.835-65.146-21.835c-14.465,0-28.512,2.816-41.231,8.006V151.446
			c44.584-7.102,78.769-45.816,78.769-92.369V14.769C349.538,6.613,342.926,0,334.769,0c-51.577,0-93.538,41.961-93.538,93.538
			v92.023c-27.8-37.858-72.613-62.485-123.077-62.485c-8.157,0-14.769,6.613-14.769,14.769v19.692
			c0,79.17,60.598,144.445,137.846,151.899v55.08c-14.947-12.695-34.053-19.902-54.154-19.902
			c-35.929,0-67.039,22.997-78.734,55.358c-6.421-2.408-13.287-3.666-20.343-3.666c-31.897,0-57.846,25.95-57.846,57.846
			S56.103,512,88,512h336c31.897,0,57.846-25.95,57.846-57.846S455.897,396.308,424,396.308z"/>
	</g>
</g>
<g>
</g>
<g>
</g>
<g>
</g>
<g>
</g>
<g>
</g>
<g>
</g>
<g>
</g>
<g>
</g>
<g>
</g>
<g>
</g>
<g>
</g>
<g>
</g>
<g>
</g>
<g>
</g>
<g>
</g>
</svg>
