<svg height="512" viewBox="0 0 512 512" width="512" xmlns="http://www.w3.org/2000/svg"><g id="Solid"><path d="m80 352v16a8.027 8.027 0 0 1 -.41 2.53l-4.49 13.47h44.9v-32.31a23.877 23.877 0 0 1 9.008-18.741l16.186-12.949h-33.194a32.036 32.036 0 0 0 -32 32z"/><path d="m106.213 304a72.154 72.154 0 0 1 -19.058-23.8l-12.099-24.2h-43.056v14.111a34.063 34.063 0 0 0 3.577 15.156 33.7 33.7 0 0 0 30.312 18.733zm-42.213-16h-16v-16h16z"/><path d="m208 187.719v-51.488a142.67 142.67 0 0 0 -59.56 40.415l22.047 36.082zm-40-19.719h16v16h-16z"/><path d="m153.736 264h6.264v-37.75l-22.329-36.543-24.683 30.379 20.4 32.634a23.862 23.862 0 0 0 20.348 11.28z"/><path d="m151.554 304h8.446v-24h-6.264a39.775 39.775 0 0 1 -33.921-18.8l-17.492-27.988-12.859 15.827 12 24.006a55.7 55.7 0 0 0 50.09 30.955z"/><path d="m264 280h72v24h-72z"/><path d="m352 264h12.223a23.868 23.868 0 0 0 21.466-13.268l14.562-29.122-24.742-30.451-23.509 35.263z"/><path d="m408.787 304h47.84l-32.15-17.536a72.264 72.264 0 0 1 -15.69 17.536z"/><path d="m264 264h72v-35.719l-39.57-26.381-32.43 25.945zm16-32h16v16h-16z"/><path d="m364.917 178.2a142.719 142.719 0 0 0 -60.917-41.969v51.488l37.781 25.187zm-36.917-2.2h-16v-16h16z"/><path d="m264 320h40v16h-40z"/><path d="m288 131.584a144.649 144.649 0 0 0 -64 0v56.571l32 25.6 32-25.6zm-32 28.416h-16v-16h16z"/><path d="m176 228.281v35.719h72v-36.155l-32.43-25.945zm32 19.719h-16v-16h16z"/><path d="m416.083 267.663 6.816-18.178-11.574-14.245-11.325 22.649a39.782 39.782 0 0 1 -35.777 22.111h-12.223v24h11.648a56.261 56.261 0 0 0 52.435-36.337z"/><path d="m320 320v16h41.193l-20-16z"/><path d="m200 320h48v16h-48z"/><path d="m176 280h72v24h-72z"/><path d="m400 320h-33.194l16.187 12.949a23.879 23.879 0 0 1 9.007 18.741v16.31a8.032 8.032 0 0 1 -.41 2.53l-4.49 13.47h44.9v-32a32.036 32.036 0 0 0 -32-32z"/><path d="m150.807 336h33.193v-16h-13.193z"/></g></svg>