<?xml version="1.0" encoding="iso-8859-1"?>
<!-- Generator: Adobe Illustrator 19.0.0, SVG Export Plug-In . SVG Version: 6.00 Build 0)  -->
<svg version="1.1" id="Capa_1" xmlns="http://www.w3.org/2000/svg" xmlns:xlink="http://www.w3.org/1999/xlink" x="0px" y="0px"
	 viewBox="0 0 512.01 512.01" style="enable-background:new 0 0 512.01 512.01;" xml:space="preserve">
<g>
	<g>
		<path d="M266.671,277.333c-18.539,0-32,8.96-32,21.333c0,12.373,13.461,21.333,32,21.333c18.539,0,32-8.96,32-21.333
			C298.671,286.293,285.21,277.333,266.671,277.333z"/>
	</g>
</g>
<g>
	<g>
		<path d="M384.005,234.667c-5.888,0-10.667,4.779-10.667,10.667c0,29.547-61.824,42.667-85.333,42.667
			c-5.888,0-10.667,4.779-10.667,10.667s4.779,10.667,10.667,10.667c28.48,0,106.667-15.168,106.667-64
			C394.671,239.445,389.893,234.667,384.005,234.667z"/>
	</g>
</g>
<g>
	<g>
		<path d="M511.685,498.752l-16.576-66.283c-3.797-15.125-13.931-27.797-27.883-34.773l-41.664-20.843
			c-4.181-2.112-9.301-1.216-12.523,2.219c-3.221,3.435-3.84,8.533-1.515,12.629l10.923,19.115
			c4.928,8.64,5.568,19.285,1.664,28.437c-3.925,9.173-12.011,16.085-21.675,18.496l-35.499,8.832
			c-1.195,0.299-2.304,0.789-3.328,1.472l-36.608,24.405c-3.925,2.603-5.653,7.467-4.288,11.968S328.218,512,332.911,512h168.427
			c3.285,0,6.4-1.515,8.427-4.096C511.77,505.301,512.474,501.931,511.685,498.752z"/>
	</g>
</g>
<g>
	<g>
		<path d="M403.951,421.376l-42.667-74.667c-1.856-3.243-5.269-5.269-9.003-5.376c-3.989-0.149-7.232,1.771-9.259,4.885
			l-87.019,135.36l-87.019-135.36c-2.027-3.115-5.632-5.035-9.259-4.885c-3.733,0.107-7.147,2.133-9.003,5.376l-42.667,74.667
			c-1.643,2.901-1.856,6.4-0.533,9.472c1.323,3.072,3.989,5.355,7.232,6.165l40.875,10.219l94.464,62.976
			c0.213,0.149,0.469,0.085,0.704,0.213c1.621,0.917,3.349,1.579,5.205,1.579s3.584-0.64,5.227-1.579
			c0.213-0.128,0.491-0.064,0.704-0.213l94.443-62.976l40.875-10.219c3.243-0.811,5.909-3.093,7.232-6.165
			C405.807,427.776,405.594,424.256,403.951,421.376z"/>
	</g>
</g>
<g>
	<g>
		<path d="M183.429,491.392l-35.029-23.339c-1.024-0.683-2.155-1.173-3.328-1.472l-35.499-8.875
			c-9.643-2.411-17.749-9.344-21.675-18.475c-3.904-9.173-3.264-19.797,1.664-28.437l10.923-19.115
			c2.304-4.075,1.707-9.216-1.515-12.629c-3.243-3.413-8.32-4.309-12.523-2.219l-41.643,20.843
			c-13.931,6.976-24.107,19.648-27.904,34.773L0.325,498.731c-0.789,3.179-0.085,6.571,1.941,9.152
			c2.005,2.603,5.12,4.117,8.405,4.117h168.427c0.171,0.021,0.341,0,0.427,0c5.888,0,10.667-4.779,10.667-10.667
			C190.17,496.811,187.375,492.971,183.429,491.392z"/>
	</g>
</g>
<g>
	<g>
		<path d="M401.199,175.659c-1.835-5.589-7.936-8.619-13.483-6.763c-5.589,1.856-8.619,7.893-6.763,13.483
			c2.005,5.973,3.051,12.992,3.051,20.288c0,20.715-7.573,32.235-11.328,31.531c-2.88-1.813-6.464-2.133-9.643-0.853
			s-5.547,3.989-6.357,7.317c-14.912,60.224-55.381,100.672-100.672,100.672s-85.76-40.469-100.672-100.672
			c-0.811-3.328-3.52-5.781-6.677-7.083c-3.157-1.259-7.061-0.725-9.984,1.088c-2.645,0-10.667-11.371-10.667-32
			c0-7.296,1.045-14.315,3.029-20.309c1.856-5.589-1.152-11.627-6.763-13.483c-5.589-1.856-11.648,1.173-13.483,6.763
			c-2.688,8.128-4.117,17.472-4.117,27.029c0,29.696,13.12,52.267,30.741,53.312c19.392,64.235,66.048,106.688,118.592,106.688
			s99.2-42.453,118.592-106.688c17.621-1.024,30.741-23.595,30.741-53.312C405.338,193.109,403.909,183.765,401.199,175.659z"/>
	</g>
</g>
<g>
	<g>
		<path d="M256.005,0c-82.325,0-149.333,66.987-149.333,149.333c0,9.877,1.216,20.032,3.84,31.957
			c0.661,3.051,2.645,5.675,5.397,7.125c2.773,1.472,6.08,1.643,8.939,0.491c3.115-1.216,66.965-27.157,84.224-84.779
			c33.301,36.459,109.888,85.547,182.016,85.547c5.013,0,9.344-3.499,10.411-8.384c2.624-11.925,3.84-22.08,3.84-31.957
			C405.338,66.987,338.33,0,256.005,0z"/>
	</g>
</g>
<g>
	<g>
		<path d="M224.005,192h-21.333c-5.888,0-10.667,4.779-10.667,10.667s4.779,10.667,10.667,10.667h21.333
			c5.888,0,10.667-4.757,10.667-10.667C234.671,196.757,229.893,192,224.005,192z"/>
	</g>
</g>
<g>
	<g>
		<path d="M309.338,192h-21.333c-5.888,0-10.667,4.779-10.667,10.667s4.779,10.667,10.667,10.667h21.333
			c5.888,0,10.667-4.757,10.667-10.667C320.005,196.757,315.226,192,309.338,192z"/>
	</g>
</g>
<g>
	<g>
		<path d="M189.893,313.6l-61.888-82.496v-81.771c0-5.888-4.779-10.667-10.667-10.667s-10.667,4.757-10.667,10.667
			c0,34.453-19.136,110.72-39.552,131.115c-4.16,4.16-4.16,10.923,0,15.083c23.573,23.595,103.851,33.941,112.917,35.051
			c0.448,0.064,0.875,0.085,1.301,0.085c3.776,0,7.317-2.005,9.237-5.333C192.73,321.643,192.453,317.013,189.893,313.6z"/>
	</g>
</g>
<g>
	<g>
		<path d="M444.89,280.448c-20.416-20.395-39.552-96.683-39.552-131.115c0-5.888-4.779-10.667-10.667-10.667
			s-10.667,4.757-10.667,10.667v81.771L322.138,313.6c-2.56,3.413-2.837,8.021-0.683,11.733c1.92,3.328,5.461,5.333,9.237,5.333
			c0.427,0,0.853-0.021,1.301-0.064c9.067-1.109,89.344-11.456,112.917-35.051C449.05,291.371,449.05,284.629,444.89,280.448z"/>
	</g>
</g>
<g>
</g>
<g>
</g>
<g>
</g>
<g>
</g>
<g>
</g>
<g>
</g>
<g>
</g>
<g>
</g>
<g>
</g>
<g>
</g>
<g>
</g>
<g>
</g>
<g>
</g>
<g>
</g>
<g>
</g>
</svg>
