<svg width="512" height="512" viewBox="0 0 512 512" fill="none" xmlns="http://www.w3.org/2000/svg">
<path d="M156.171 216.13H186.171V276.722H156.171V216.13Z" fill="#FEF5E5"/>
<path d="M325.828 216.13H355.828V276.722H325.828V216.13Z" fill="#FEF5E5"/>
<path d="M464.894 237.881C464.894 232.634 464.694 227.433 464.312 222.281C496.654 186.52 513.073 141.459 511.945 90.912C511.002 48.669 498.167 17.522 497.621 16.217L494.297 8.26901L485.758 7.13501C412.869 -2.54699 364.596 18.665 336.935 38.162C334.758 39.696 332.681 41.245 330.682 42.798C307.479 33.887 282.303 28.987 256 28.987C229.697 28.987 204.521 33.887 181.318 42.8C179.318 41.247 177.241 39.698 175.065 38.164C147.403 18.665 99.13 -2.54599 26.242 7.13601L17.703 8.27001L14.379 16.218C13.832 17.522 0.997021 48.669 0.0550205 90.912C-1.07398 141.46 15.345 186.52 47.687 222.281C47.305 227.432 47.105 232.633 47.105 237.881C47.105 273.276 56.709 307.969 69.689 339.378H28.352V369.378H83.456C88.505 379.434 93.713 388.99 98.82 397.938L38.769 427.209L51.913 454.176L114.174 423.828C115.822 426.529 120.144 433.577 120.144 433.577C134.436 456.887 158.75 471.376 188.333 471.376L188.395 471.37C203.093 493.026 227.912 507.284 255.999 507.284C284.087 507.284 308.905 493.026 323.604 471.37L323.666 471.376C353.249 471.376 377.564 456.887 391.855 433.577C391.855 433.577 396.177 426.529 397.825 423.828L460.086 454.176L473.231 427.209L413.18 397.938C418.288 388.99 423.495 379.434 428.544 369.378H483.648V339.378H442.31C455.291 307.968 464.894 273.276 464.894 237.881V237.881ZM472.751 35.827C476.171 46.668 481.548 67.538 481.973 92.605C482.546 126.441 474.297 156.502 457.402 182.4C448.758 151.058 432.979 122.65 411.926 99.033C429.76 91.208 444.638 92.305 445.607 92.389L445.502 92.379L448.498 62.529C446.912 62.369 418.972 59.883 389.097 76.998C380.512 69.883 371.345 63.45 361.688 57.762C392.226 38.948 429.511 31.582 472.751 35.827V35.827ZM54.598 182.401C37.703 156.503 29.454 126.441 30.027 92.606C30.452 67.539 35.829 46.669 39.249 35.828C82.489 31.583 119.773 38.949 150.313 57.764C140.656 63.452 131.489 69.885 122.904 77C93.027 59.884 65.088 62.37 63.502 62.53L66.498 92.38L66.393 92.39C67.362 92.306 82.24 91.209 100.074 99.034C79.021 122.651 63.242 151.059 54.598 182.401V182.401ZM256 477.284C242.7 477.284 230.56 472.229 221.395 463.942C235.772 457.225 247.857 446.313 255.999 432.643L256 432.644L256.001 432.643C264.143 446.313 276.228 457.224 290.605 463.942C281.439 472.228 269.3 477.284 256 477.284V477.284ZM246.471 336.342H265.527C274.472 336.342 281.75 343.62 281.75 352.565C281.75 358.231 278.732 363.562 273.874 366.477L256 377.202L238.126 366.477C233.268 363.562 230.25 358.231 230.25 352.565C230.248 343.62 237.526 336.342 246.471 336.342ZM366.271 417.893H366.275C357.209 432.987 341.923 441.155 324.874 441.378C300.444 441.718 279.682 424.259 275.564 400.45L289.31 392.202C303.153 383.896 311.751 368.709 311.751 352.566C311.751 327.078 291.015 306.343 265.528 306.343H246.472C220.985 306.343 200.249 327.079 200.249 352.566C200.249 368.708 208.848 383.896 222.69 392.202L236.436 400.45C232.319 424.259 211.557 441.718 187.126 441.378C170.077 441.155 154.791 432.987 145.725 417.893H145.729C118.877 374.113 77.105 306.028 77.105 237.881C77.105 139.238 157.357 58.987 255.999 58.987C354.642 58.987 434.893 139.239 434.893 237.881C434.894 306.028 393.123 374.113 366.271 417.893V417.893Z" fill="#FEF5E5"/>
</svg>
