<?xml version="1.0"?>
<svg xmlns="http://www.w3.org/2000/svg" viewBox="0 0 512 512" width="512" height="512"><g id="Solid"><path d="M161.854,386.878,190.92,352H165.082A93.061,93.061,0,0,1,128,381.2v8.5L164.434,448h29.132l-32.35-51.76A8,8,0,0,1,161.854,386.878Z"/><path d="M77.833,216.331a64.487,64.487,0,0,1,12.582-12.086A64,64,0,0,1,112,80h64a8,8,0,1,0,0-16H112A80,80,0,0,0,77.833,216.331Z"/><path d="M379.2,295.6l40-30a8,8,0,0,1,6.369-1.445l35.8,7.161,17.477-17.477L472.41,234.53A8.027,8.027,0,0,1,472,232V211.313l-13.657-13.656A8,8,0,0,1,456,192v-1.373a46.293,46.293,0,0,0-8.48-26.833l-3.594,3.594a46.549,46.549,0,0,0-8.736,12.119l-4.035,8.07a8,8,0,0,1-5.586,4.268l-80,16A8.026,8.026,0,0,1,344,208H128a48.054,48.054,0,0,0-48,48v80.333h-.021a7.987,7.987,0,0,1-3.541,6.323L32,372.281V448H56V392a8,8,0,0,1,5.8-7.692l50.462-14.418A77.173,77.173,0,0,0,168,296h16a92.25,92.25,0,0,1-9.144,40h135.6L296.51,298.809l14.98-5.618,23.677,63.138L396.281,448h30.325l-49.65-92.207A8,8,0,0,1,376,352V302A8,8,0,0,1,379.2,295.6ZM440,216h16v16H440Z"/><path d="M277.416,352,264,385.541V448h24V392a8,8,0,0,1,1.861-5.13L317.244,354.1l-.788-2.1Z"/></g></svg>
