<?xml version="1.0"?>
<svg xmlns="http://www.w3.org/2000/svg" viewBox="0 0 512 512" width="512" height="512"><g id="Solid"><path d="M99.507,295.622,120,271.711V256a55.972,55.972,0,0,1,1.279-11.872l-35.2,41.078A8,8,0,0,1,80,288H33.357A24.037,24.037,0,0,0,56,304H81.28A23.984,23.984,0,0,0,99.507,295.622Z"/><path d="M217.418,385.553l-5.62-16.69a8,8,0,0,1,4-9.708A43.494,43.494,0,0,0,239.276,328H207.559A71.829,71.829,0,0,1,186.8,370.962l33.843,60.922,22.758-.555-25.348-44.36A8.066,8.066,0,0,1,217.418,385.553Z"/><path d="M456,192a8,8,0,0,1-8-8,24.027,24.027,0,0,0-24-24H389.255a23.85,23.85,0,0,0-16.972,7.03l-46.626,46.627A8,8,0,0,1,320,216H176a40.045,40.045,0,0,0-40,40v96a8,8,0,0,1-8,8H80v70.629A24.042,24.042,0,0,0,96,408V384a8,8,0,0,1,8-8h32a56.063,56.063,0,0,0,56-56V288h16v24h96V288h16v85.706L356.434,432H378.4l-33.4-60.115A8,8,0,0,1,344,368V328a8,8,0,0,1,1.6-4.8l72-96A8,8,0,0,1,424,224h40a16.019,16.019,0,0,0,16-16V192Zm-40,8a24,24,0,0,1-48,0V176h16v24a8,8,0,0,0,16,0V176h16Z"/><path d="M378.628,305.83,365.976,322.7l36.833,13.811a8.009,8.009,0,0,1,4.5,4.242l17.469,39.31a26.248,26.248,0,0,0,23.96,15.559,25.939,25.939,0,0,0,4.72-.43L425.8,326.048Z"/></g></svg>
