<svg width="512" height="512" viewBox="0 0 512 512" fill="none" xmlns="http://www.w3.org/2000/svg">
<path d="M458.386 386.686C424.08 363.881 376.349 352.883 332.45 341.283V338.809C351.452 326.994 367.527 310.917 379.324 291.924H445.375V234.612H461V124.612H401V87.833C401 41.945 363.975 4.61301 318.465 4.61301H215.148V32.625L150.216 4.61301H111C111 25.266 111.001 117.403 111.001 124.612H51V234.612H112.21C117.92 278.555 143.461 316.37 179.551 338.809V341.283C91.786 364.475 0 383.245 0 492.387V507.387H512V492.387C512 445.244 494.463 410.668 458.386 386.686V386.686ZM209.55 352.998C238.661 362.849 271.551 363.454 302.45 352.998V365.813C302.45 391.351 281.612 412.127 256 412.127C230.388 412.127 209.55 391.351 209.55 365.816V352.998ZM415.375 261.924H393.478C396.431 253.161 398.565 244.028 399.789 234.612H415.375V261.924ZM431 204.612H401C401 198.346 401 160.841 401 154.612H431V204.612ZM144.02 34.613L245.148 78.24V34.613H318.464C347.432 34.613 370.999 58.487 370.999 87.833V124.613H193.535C164.593 124.613 141.043 100.782 141.002 71.472V69.612H141V34.613H144.02ZM81 154.612H111V204.612H81V154.612ZM141 215.902L141.001 135.53C155.283 147.444 173.594 154.613 193.535 154.613H371L370.999 215.899C370.999 232.26 367.54 247.828 361.325 261.924H259.375V291.924H342.036C320.953 315.638 290.198 330.612 256 330.612C192.589 330.612 141 279.152 141 215.902V215.902ZM30.741 477.387C33.785 448.193 46.308 427.567 70.222 411.669C99.15 392.439 143.898 381.635 179.839 372.228C183.116 411.315 216.01 442.127 255.999 442.127C295.988 442.127 328.882 411.315 332.159 372.227C370.167 382.201 413.386 392.797 441.776 411.669C465.69 427.566 478.214 448.192 481.258 477.387H30.741Z" fill="#FEF5E5"/>
</svg>
