<svg width="512" height="512" viewBox="0 0 512 512" fill="none" xmlns="http://www.w3.org/2000/svg">
<g clip-path="url(#clip0)">
<path d="M495.27 231.326C495.27 183.816 456.618 145.164 409.109 145.164H369.815C362.569 137.874 354.686 131.276 346.27 125.461V90.2691C346.27 40.4948 305.775 0 256 0C206.225 0 165.73 40.4948 165.73 90.2691V125.461C157.314 131.276 149.431 137.874 142.185 145.164H102.891C55.3817 145.164 16.73 183.816 16.73 231.326V260.628H91.7038C91.5566 263.61 91.4805 266.611 91.4805 269.631C91.4805 293.206 96.0176 315.688 104.216 336.177L78.649 378.27C53.9851 418.876 66.9548 471.977 107.562 496.642L132.848 511.999L183.724 424.597C205.553 435.84 230.084 442.166 256.001 442.166C281.918 442.166 306.449 435.84 328.278 424.597L379.154 512L404.44 496.642C445.046 471.977 458.017 418.876 433.352 378.27L407.786 336.177C415.984 315.689 420.522 293.206 420.522 269.631C420.522 266.611 420.446 263.61 420.298 260.628H495.272V231.326H495.27ZM389.711 470.436L353.615 408.425C368.322 397.019 381.156 383.107 391.547 367.297L407.682 393.861C423.571 420.022 415.48 454.147 389.711 470.436V470.436ZM104.319 393.861L120.454 367.296C130.845 383.107 143.68 397.019 158.386 408.425L122.289 470.436C96.5212 454.147 88.4291 420.022 104.319 393.861ZM102.891 175.198H118.381C107.933 191.887 100.161 210.575 95.7293 230.594H46.7679C47.1604 199.98 72.1857 175.198 102.891 175.198V175.198ZM256 30.034C289.214 30.034 316.236 57.0555 316.236 90.2691V109.07C297.573 101.343 277.251 97.0948 256 97.0948C234.75 97.0948 214.428 101.343 195.764 109.069V90.2681C195.764 57.0555 222.787 30.034 256 30.034ZM302.732 269.631L279.366 310.102H232.633L209.267 269.631L232.633 229.159H279.366L302.732 269.631ZM279.366 199.125H232.633L198.87 140.646C216.22 131.983 235.583 127.129 256 127.129C276.416 127.129 295.78 131.983 313.129 140.645L279.366 199.125ZM173.657 157.044L206.624 214.142L183.257 254.614H122.26C126.191 215.039 145.471 180.243 173.657 157.044ZM183.257 284.648L206.624 325.119L173.657 382.217C145.471 359.019 126.191 324.223 122.26 284.648H183.257ZM198.871 398.616L232.634 340.137H279.367L313.13 398.617C295.781 407.28 276.417 412.133 256.001 412.133C235.584 412.133 216.221 407.279 198.871 398.616V398.616ZM338.343 382.218L305.376 325.119L328.743 284.648H389.74C385.81 324.224 366.53 359.02 338.343 382.218V382.218ZM389.74 254.614H328.743L305.376 214.142L338.343 157.043C366.53 180.242 385.81 215.039 389.74 254.614ZM393.62 175.198H409.109C439.814 175.198 464.84 199.98 465.231 230.594H416.272C411.84 210.575 404.068 191.887 393.62 175.198V175.198Z" fill="#FEF5E5"/>
</g>
<defs>
<clipPath id="clip0">
<rect width="512" height="512" fill="white"/>
</clipPath>
</defs>
</svg>
