<svg height="512" viewBox="0 0 512 512" width="512" xmlns="http://www.w3.org/2000/svg"><g id="Solid"><path d="m368 311.757v-8.635c-3.044 1.322-6.274 2.67-9.725 4.023a30.266 30.266 0 0 0 9.725 4.612z"/><path d="m295.717 337.779.283.112v-14.642q-8.067 1.192-17.044 2.131a41.415 41.415 0 0 0 16.761 12.399z"/><path d="m368 223.45a30.436 30.436 0 0 0 -13.656 7.921l-.139.139 13.8 4.138z"/><path d="m440.845 260.422 32.337-64.673a87.408 87.408 0 0 0 -53.554 52.026 20.663 20.663 0 0 1 -25.212 12.5l-135.758-40.726a23.933 23.933 0 0 1 -16.919-25.964l5.1-40.787a52.594 52.594 0 0 0 -39.239 31.119l-8.243 19.234a8 8 0 0 1 -5.963 4.727c-37.519 6.621-90.7 18.821-131 39.344-14.241 7.252-22.884 13.547-27.579 17.491l12.23 15.287h32.955v16h-20.155l1.34 1.675c4.268 1.9 23.531 8.81 83.549 12.3l-7.048-9.063 12.628-9.822 36.354 46.741a57.039 57.039 0 0 0 32.375 20.714l-26.354-59.295 14.622-6.5 8.547 19.231q4.007.019 8.142.019c86.658 0 124.174-17.259 149-28.679 9.131-4.2 17.017-7.828 25.049-9.46a20.569 20.569 0 0 1 21.308 8.75l9.551 14.326a51.682 51.682 0 0 0 31.018 21.644l-19.416-51.772a8 8 0 0 1 .335-6.387zm-352.845 11.578h-16v-16h16zm32 0h-16v-32h16zm32 0h-16v-32h16zm32 0h-16v-32h16zm168 0h-152v-16h152z"/></g></svg>