<svg width="512" height="512" viewBox="0 0 512 512" fill="none" xmlns="http://www.w3.org/2000/svg">
<g clip-path="url(#clip0)">
<path d="M451.276 328.895C450.576 324.293 449.882 319.782 449.2 315.347C442.721 273.232 437.605 239.967 437.605 202.158C437.605 164.93 417.834 126.376 383.363 96.3866C358.528 74.7793 328.955 59.9678 297.495 52.9986L310.834 8.66434L282.034 -1.52588e-05L267.355 48.7902C263.582 48.5657 259.796 48.4414 256 48.4414C252.205 48.4414 248.419 48.5657 244.646 48.7902L229.967 -1.52588e-05L201.167 8.66434L214.506 52.9986C183.046 59.9668 153.473 74.7793 128.638 96.3866C94.1661 126.376 74.3964 164.929 74.3964 202.158C74.3964 239.975 69.2778 273.248 62.7968 315.374C62.1161 319.8 61.4234 324.303 60.7247 328.895C55.7434 361.608 65.2619 394.773 86.8401 419.886C108.447 445.032 139.854 459.454 173.005 459.454H203.645C215.782 477.175 230.758 493.067 246.979 505.234L256.001 512.001L265.023 505.234C281.245 493.068 296.221 477.176 308.358 459.454H338.998C372.149 459.454 403.556 445.032 425.163 419.886C446.739 394.772 456.259 361.607 451.276 328.895ZM338.997 429.38H325.34C334.736 408.594 339.651 387.539 339.651 367.739C339.651 347.37 334.652 325.975 325.458 306.612C328.324 300.64 329.85 294.052 329.85 287.364C329.85 262.859 309.913 242.922 285.407 242.922C274.34 242.922 263.953 247.049 256.001 254.059C248.049 247.05 237.662 242.922 226.596 242.922C202.089 242.922 182.152 262.859 182.152 287.364C182.152 294.052 183.677 300.64 186.545 306.612C177.352 325.974 172.351 347.371 172.351 367.74C172.351 387.54 177.266 408.595 186.662 429.381H173.006C148.631 429.381 125.538 418.777 109.651 400.288C93.7932 381.831 86.797 357.46 90.458 333.423C91.1547 328.847 91.8454 324.359 92.5241 319.948C98.9359 278.27 104.474 242.276 104.474 202.159C104.474 174.055 120.887 142.996 148.381 119.077C178.01 93.301 217.235 78.5165 256.003 78.5165C294.771 78.5165 333.997 93.3 363.625 119.077C391.119 142.996 407.533 174.055 407.533 202.159C407.533 242.268 413.068 278.254 419.478 319.922C420.158 324.341 420.849 328.838 421.547 333.423C425.207 357.46 418.213 381.831 402.355 400.287C386.465 418.775 363.372 429.38 338.997 429.38V429.38ZM202.424 367.739C202.424 349.532 207.583 330.159 216.952 313.187L221.86 304.296L215.445 296.423C213.976 294.619 212.225 291.584 212.225 287.363C212.225 279.441 218.672 272.995 226.595 272.995C232.673 272.995 238.117 276.844 240.143 282.574L240.963 284.893V404.986H271.037V284.893L271.857 282.574C273.883 276.844 279.327 272.995 285.406 272.995C293.328 272.995 299.775 279.441 299.775 287.363C299.775 291.585 298.025 294.619 296.555 296.423L290.141 304.296L295.048 313.187C304.417 330.16 309.576 349.534 309.576 367.739C309.576 403.605 287.967 445.768 256 473.841C224.032 445.766 202.424 403.604 202.424 367.739V367.739Z" fill="#FEF5E5"/>
<path d="M137.046 190.621H167.12V245.26H137.046V190.621Z" fill="#FEF5E5"/>
<path d="M344.88 190.621H374.954V245.26H344.88V190.621Z" fill="#FEF5E5"/>
</g>
<defs>
<clipPath id="clip0">
<rect width="512" height="512" fill="white"/>
</clipPath>
</defs>
</svg>
