<svg width="512" height="512" viewBox="0 0 512 512" fill="none" xmlns="http://www.w3.org/2000/svg">
<g clip-path="url(#clip0)">
<path d="M450.476 265.852C450.476 249.549 448.448 233.712 444.652 218.569C484.218 201.58 512 162.235 512 116.518C512 55.312 462.206 5.51801 401 5.51801C354.127 5.51801 313.947 34.723 297.699 75.891C284.26 72.943 270.311 71.375 256 71.375C241.689 71.375 227.74 72.943 214.301 75.891C198.053 34.723 157.873 5.51801 111 5.51801C49.794 5.51801 0 55.312 0 116.518C0 162.234 27.783 201.579 67.349 218.568C63.552 233.711 61.524 249.548 61.524 265.851C61.524 291.082 66.206 315.812 73.436 338.575H28.353V368.575H84.816C89.307 378.736 94.179 388.255 99.178 396.961L38.769 426.406L51.914 453.373L115.651 422.305C119.978 428.152 124.191 433.244 128.123 437.452C141.442 451.709 162.477 468.641 188.29 470.414C202.975 492.157 227.846 506.481 256.001 506.481C284.155 506.481 309.026 492.157 323.711 470.414C349.523 468.641 370.56 451.709 383.879 437.452C387.81 433.244 392.024 428.153 396.35 422.305L460.087 453.373L473.232 426.406L412.824 396.961C417.822 388.255 422.695 378.736 427.186 368.575H483.649V338.575H438.565C445.795 315.813 450.476 291.082 450.476 265.852V265.852ZM319.738 440.576C319.542 440.579 319.348 440.58 319.153 440.58C302.408 440.579 287.478 431.154 279.875 417.039L289.31 411.378H289.309C303.152 403.073 311.751 387.885 311.751 371.742C311.751 346.254 291.016 325.519 265.527 325.519H246.471C220.984 325.519 200.248 346.255 200.248 371.742C200.248 387.885 208.847 403.072 222.689 411.378L232.126 417.04C224.438 431.33 209.253 440.824 192.262 440.576C174.497 440.344 158.185 425.688 150.043 416.973C127.417 392.754 91.523 330.31 91.523 265.851C91.523 175.159 165.307 101.375 255.999 101.375C346.691 101.375 420.475 175.159 420.475 265.851C420.475 330.311 384.58 392.754 361.955 416.972C353.814 425.688 337.502 440.344 319.738 440.576V440.576ZM238.126 385.653C233.268 382.738 230.249 377.407 230.249 371.742C230.249 362.796 237.527 355.519 246.472 355.519H265.528C274.473 355.519 281.752 362.797 281.752 371.742C281.752 377.408 278.734 382.738 273.876 385.653L256 396.378L238.126 385.653ZM255.999 435.608C263.971 448.251 275.605 458.272 289.277 464.29C280.281 471.888 268.67 476.482 256 476.482C243.327 476.482 231.713 471.886 222.716 464.284C236.388 458.266 248.029 448.249 255.999 435.608V435.608ZM111 35.518C144.345 35.518 173.04 55.775 185.446 84.626C176.157 88.255 167.213 92.578 158.678 97.532C151.112 78.601 132.599 65.185 111 65.185C82.695 65.185 59.667 88.213 59.667 116.518H89.667C89.667 104.755 99.237 95.185 111 95.185C122.553 95.185 131.968 104.422 132.302 115.895C108.378 135.664 89.249 161.037 76.938 189.982C49.25 177.092 30 149.019 30 116.518C30 71.855 66.336 35.518 111 35.518V35.518ZM482 116.518C482 149.018 462.75 177.092 435.062 189.982C422.751 161.036 403.621 135.664 379.698 115.894C380.032 104.421 389.447 95.185 401 95.185C412.763 95.185 422.333 104.755 422.333 116.518H452.333C452.333 88.213 429.305 65.185 401 65.185C379.401 65.185 360.887 78.601 353.321 97.531C344.786 92.577 335.843 88.255 326.553 84.626C338.961 55.776 367.656 35.518 401 35.518C445.664 35.518 482 71.855 482 116.518V116.518Z" fill="#FEF5E5"/>
<path d="M156.171 233.852H186.171V294.444H156.171V233.852Z" fill="#FEF5E5"/>
<path d="M325.829 233.852H355.829V294.444H325.829V233.852Z" fill="#FEF5E5"/>
</g>
<defs>
<clipPath id="clip0">
<rect width="512" height="512" fill="white"/>
</clipPath>
</defs>
</svg>
