<svg width="512" height="512" viewBox="0 0 512 512" fill="none" xmlns="http://www.w3.org/2000/svg">
<g clip-path="url(#clip0)">
<path d="M158.473 197.052H188.473V255.999H158.473V197.052Z" fill="#00564E"/>
<path d="M323.527 197.053H353.527V256H323.527V197.053Z" fill="#00564E"/>
<path d="M494.2 104.645L494.072 104.475C481.558 87.7903 465.646 76.4092 448.056 71.5622C431.918 67.1152 414.726 68.2622 397.983 74.8132C361.273 39.0601 311.169 16.998 256.001 16.998C200.833 16.998 150.728 39.0601 114.019 74.8132C97.2755 68.2622 80.0825 67.1152 63.9454 71.5622C46.3553 76.4092 30.4433 87.7903 17.9372 104.464L17.7942 104.655C5.3342 121.269 -0.940821 141.831 0.116183 162.569L5.6872 322.213L5.6982 322.478C7.64121 359.405 38.1303 388.332 75.1095 388.332L84.3605 388.342C95.2505 430.064 133.083 459.631 176.206 459.631C180.599 459.631 184.92 459.323 189.156 458.742C203.424 480.551 228.051 494.999 256.002 494.999C283.953 494.999 308.579 480.55 322.848 458.742C327.084 459.323 331.405 459.631 335.798 459.631C378.92 459.631 416.737 430.029 427.629 388.311L436.896 388.332C473.874 388.332 504.363 359.406 506.307 322.478L511.889 162.568C512.943 141.832 506.668 121.269 494.2 104.645ZM87.2735 184.524C86.0015 190.409 84.6795 196.525 83.3285 202.879C68.6054 272.078 73.0854 330.09 77.0195 358.334H76.9995C56.0204 358.334 36.8263 341.955 35.6623 321.023L30.0923 161.403L30.0803 161.137C29.3553 147.36 33.5143 133.694 41.7843 122.667L41.9283 122.476C57.6204 101.554 77.9905 94.2953 99.9046 101.574C101.312 119.567 95.2605 147.566 87.2735 184.524ZM176.205 429.633C146.716 429.633 120.931 409.702 113.5 381.164L113.466 381.036C113.376 380.702 110.728 370.849 107.016 355.949C103.439 331.01 98.5875 275.317 112.671 209.122C114.016 202.801 115.331 196.716 116.596 190.861C119.688 176.555 122.462 163.707 124.684 152.071C148.58 164.634 172.544 157.84 192.592 152.139C212.544 146.465 225.364 143.381 237.013 151.147C248.506 158.809 254.333 173.002 254.333 193.333C254.333 215.654 247.072 244.797 233.337 277.817C211.445 283.189 195.152 302.971 195.152 326.496C195.152 344.003 204.478 360.474 219.49 369.481L238.92 381.139C231.672 409.002 206.304 429.633 176.205 429.633ZM266.72 306.369C277.819 306.369 286.848 315.399 286.848 326.497C286.848 333.527 283.103 340.14 277.076 343.757L256 356.403L234.924 343.757C228.896 340.141 225.152 333.527 225.152 326.497C225.152 315.398 234.182 306.369 245.28 306.369H266.72ZM256 465.001C241.631 465.001 228.67 458.881 219.565 449.12C234.42 441.447 247.001 429.962 256 415.964C264.999 429.962 277.579 441.446 292.435 449.12C283.33 458.881 270.369 465.001 256 465.001ZM404.931 356.159C401.247 370.942 398.625 380.704 398.536 381.036L398.502 381.164C391.071 409.702 365.286 429.633 335.796 429.633C305.697 429.633 280.329 409.003 273.081 381.14L292.511 369.482C307.523 360.475 316.849 344.004 316.849 326.497C316.849 298.856 294.362 276.369 266.721 276.369H266.199C278.225 244.674 284.334 216.795 284.334 193.334C284.334 172.032 279.011 143.09 253.654 126.186C229.89 110.343 205.715 117.218 184.386 123.283C160.088 130.192 145.248 133.456 129.576 118.964C130.097 112.668 130.248 106.816 129.947 101.347C161.616 67.8992 206.411 46.9991 255.999 46.9991C305.587 46.9991 350.383 67.8992 382.052 101.347C380.837 123.453 386.948 151.739 395.403 190.86C396.668 196.715 397.983 202.8 399.328 209.121C413.4 275.255 408.49 331.259 404.931 356.159ZM481.92 161.136L476.338 321.022C475.174 341.954 455.98 358.333 435.001 358.333H434.981C438.915 330.09 443.395 272.077 428.672 202.878C427.32 196.524 425.999 190.408 424.727 184.523C416.74 147.565 410.688 119.566 412.096 101.572C434.011 94.2953 454.381 101.553 470.08 122.485L470.208 122.655C478.486 133.693 482.645 147.36 481.92 161.136Z" fill="#00564E"/>
</g>
<defs>
<clipPath id="clip0">
<rect width="512" height="512" fill="white"/>
</clipPath>
</defs>
</svg>
