<svg width="512" height="512" viewBox="0 0 512 512" fill="none" xmlns="http://www.w3.org/2000/svg">
<g clip-path="url(#clip0)">
<path d="M6.42934 153.38L12.2598 138.491L128.323 192.715C140.095 173.793 156.975 158.369 177.023 148.383L187.122 132.446C211.774 93.5446 253.987 70.3199 300.042 70.3199H341.658L364.031 139.322C413.481 149.494 455.949 181.388 479.432 226.366L491.917 215.116L512 237.405L491.526 255.853L491.575 256L491.526 256.147L512 274.595L491.917 296.884L479.432 285.634C453.106 336.056 402.922 370.036 345.789 375.4L323.493 441.68H312.712C266.657 441.68 224.444 418.455 199.792 379.554L194.074 370.529C166.553 361.777 143.304 343.36 128.325 319.284L12.2617 373.509L6.43136 358.62C5.48629 356.207 -14.7181 302.883 21.7434 256.001C-14.7211 209.117 5.48428 155.794 6.42934 153.38ZM230.412 346.149H326.655C307.685 320.085 297.436 288.824 297.436 256C297.436 223.176 307.685 191.916 326.655 165.851H230.412C180.704 165.851 140.263 206.292 140.263 256C140.263 305.708 180.704 346.149 230.412 346.149ZM459.854 256C443.521 212.289 406.716 180.398 362.533 169.738C339.893 192.978 327.438 223.542 327.438 256.001C327.438 288.459 339.893 319.023 362.533 342.263C406.717 331.602 443.521 299.711 459.854 256ZM319.845 100.322H300.042C269.503 100.322 241.151 113.497 221.618 136.172C224.522 135.961 227.454 135.849 230.411 135.849C230.411 135.849 330.869 135.859 331.368 135.864L319.845 100.322ZM302.109 411.145L313.881 376.151H234.562C251.795 395.991 275.809 408.487 302.109 411.145ZM30.6991 331.779L115.781 292.03C112.197 280.651 110.26 268.548 110.26 256C110.26 243.453 112.196 231.35 115.781 219.971L30.736 180.239C28.6549 196.688 29.984 223.039 52.3396 245.392L62.9473 256L52.3396 266.608C29.904 289.041 28.5869 315.346 30.6991 331.779Z" fill="#00564E"/>
<path d="M405.425 240.999H375.422V271.001H405.425V240.999Z" fill="#00564E"/>
<path d="M258.081 240.999H192.076V271.001H258.081V240.999Z" fill="#00564E"/>
</g>
<defs>
<clipPath id="clip0">
<rect width="512" height="512" fill="white"/>
</clipPath>
</defs>
</svg>
