<svg width="512" height="512" viewBox="0 0 512 512" fill="none" xmlns="http://www.w3.org/2000/svg">
<path d="M467.543 159.175L456.842 105.689L427.045 117.618C400.902 128.083 373.02 137.886 343.979 146.827C331.153 111.92 311.774 77.2251 286.242 43.4926L253.323 0L231.691 23.7103C197.21 61.5048 158.3 98.2433 112.736 136.025C76.7756 165.843 51.3163 207.507 41.0471 253.341C30.461 300.594 36.0311 348.662 57.1564 392.345L115.021 511.999H178.312C233.638 511.999 282.577 503.515 323.769 486.781C362.824 470.914 395.143 447.601 419.83 417.488C471.35 354.64 488.294 262.903 467.543 159.175ZM416.47 153.853C396.734 193.627 372.047 233.088 342.76 271.559C312.656 311.102 277.681 349.689 238.808 386.247C198.26 424.381 161.799 452.382 139.429 468.484V373.496C139.429 331.814 153.093 292.565 178.943 259.994C204.035 228.376 239.301 205.674 278.243 196.068C294.041 192.171 309.567 188.067 324.583 183.825L324.609 183.906L338.323 179.862C338.453 179.824 338.584 179.786 338.714 179.748V179.747C365.63 171.809 391.677 163.122 416.47 153.853ZM70.3215 259.901C79.1457 220.512 101.01 184.721 131.885 159.119C177.355 121.416 216.413 84.6602 251.168 46.8626L262.321 61.5978C285.605 92.3613 303.316 123.822 315.122 155.321C300.834 159.342 286.074 163.236 271.057 166.94C225.703 178.128 184.643 204.553 155.444 241.344C125.34 279.276 109.429 324.972 109.429 373.497V431.529L84.1637 379.285C66.0165 341.761 61.2304 300.478 70.3215 259.901ZM396.628 398.469C375.152 424.667 346.84 445.028 312.478 458.987C274.888 474.257 229.749 482 178.312 482H171.763C194.433 464.963 225.078 440.3 258.833 408.599C299.003 370.873 335.18 331 366.361 290.085C395.209 252.23 419.81 213.389 439.845 174.155C456.099 265.108 440.875 344.495 396.628 398.469Z" fill="#00564E"/>
</svg>
