<svg width="512" height="512" viewBox="0 0 512 512" fill="none" xmlns="http://www.w3.org/2000/svg">
<path d="M450.911 143.636V0.233H360.952V77.343L256 0L0.115967 188.568V301.096H61.088C61.088 303.592 61.088 507.788 61.088 512H450.911C450.911 507.79 450.911 303.592 450.911 301.096H511.883V188.568L450.911 143.636ZM390.939 30.219H420.925V121.537L390.939 99.44V30.219ZM300.98 482.014H211.02V346.076C211.02 321.274 231.198 301.097 256 301.097C280.802 301.097 300.98 321.275 300.98 346.076V482.014ZM420.925 482.014H330.966V346.076C330.966 304.74 297.336 271.11 256 271.11C214.664 271.11 181.034 304.74 181.034 346.076V482.014H91.075C91.075 471.063 91.075 244.439 91.075 233.708L256 112.213L420.925 233.708C420.925 244.439 420.925 471.063 420.925 482.014ZM481.897 271.11H450.911V226.13V218.552L256 74.968L61.089 218.553V226.131V271.11H30.103V203.72L256 37.249L481.897 203.719V271.11Z" fill="#00564E"/>
</svg>
